<?xml version="1.0" encoding="utf-8"?>
<!-- Generator: Adobe Illustrator 24.0.0, SVG Export Plug-In . SVG Version: 6.00 Build 0)  -->
<svg version="1.1" id="Слой_1" xmlns="http://www.w3.org/2000/svg" xmlns:xlink="http://www.w3.org/1999/xlink" x="0px" y="0px"
	 width="135px" height="135px" viewBox="0 0 135 135" style="enable-background:new 0 0 135 135;" xml:space="preserve">
<style type="text/css">
	.st0{fill:#F15A29;}
	.st1{fill:#FFFFFF;}
</style>
<g>
	<circle class="st0" cx="67.9" cy="67.4" r="66.5"/>
	<g>
		<path class="st1" d="M54.3,100.8c-1.6,0.2-3.1,0.2-4.5-0.7c-1.3-0.9-2.2-2.1-2.6-3.6c-4.1,0.5-6.9-3-6.7-6.2
			c-0.3-0.1-0.6-0.2-0.9-0.2c-1.7-0.4-2.9-1.4-3.7-2.9c-0.6-1-0.8-2.1-0.7-3.3c0.1-1,0.5-1.9,1.1-2.7c0.2-0.2,0.2-0.3,0-0.6
			c-0.8-1-1.6-2-2.4-3c-0.4-0.4-0.8-0.8-1.2-1.2c-0.7,1-1,2.2-1.9,3c-0.5,0.4-1,0.6-1.6,0.7c-1.2,0.2-2.1-0.5-3-1.1
			c-0.6-0.4-1.3-0.8-1.9-1.2c-0.6-0.4-1.3-0.8-1.9-1.2c-0.4-0.3-0.9-0.5-1.3-0.8c-0.8-0.5-1.2-1.1-1.5-2c-0.2-0.6-0.1-1.2,0.1-1.7
			c0.1-0.4,0.4-0.8,0.6-1.1c0.6-1,1.1-2,1.7-3c0.4-0.7,0.8-1.3,1.2-2c0.4-0.8,0.9-1.6,1.3-2.4c0.5-0.8,1-1.7,1.4-2.5
			c0.4-0.8,0.9-1.6,1.3-2.3c0.5-0.8,0.9-1.7,1.4-2.5c0.4-0.7,0.8-1.4,1.2-2.1c0.6-1.1,1.2-2.2,1.9-3.3c0.6-1.1,1.3-2.3,1.9-3.4
			c0.6-1.1,1.3-2.2,1.9-3.3c0.3-0.7,0.8-1.2,1.4-1.5c0.9-0.5,1.8-0.5,2.7,0c1.2,0.7,2.3,1.4,3.5,2.1c1.1,0.7,2.2,1.3,3.3,2
			c0.7,0.4,1.1,1.1,1.2,1.9c0,0.4,0.1,0.9,0,1.3c-0.1,0.5-0.4,0.9-0.6,1.4c-0.1,0.2-0.2,0.4-0.4,0.6c0.4,0.2,0.7,0.5,1.1,0.7
			c0.7,0.4,1.3,0.9,2,1.2c0.7,0.3,1.5,0.4,2.2,0.6c0.7,0.2,1.3,0.3,2,0.4c0.3,0.1,0.7,0.1,1,0.1c0.5,0.1,1,0.1,1.5,0.2
			c0.4-0.5,0.8-1.1,1.3-1.6c0.5-0.6,1.1-0.9,1.8-1.2c0.8-0.3,1.6-0.5,2.4-0.8c0.6-0.2,1.2-0.2,1.9-0.3c0.8-0.1,1.5-0.3,2.3-0.4
			c0.3,0,0.6-0.1,0.9-0.1c0.6-0.1,1.2-0.1,1.8-0.2c0.6,0,1.2,0,1.8,0c1.6,0,3.2-0.1,4.8,0c1.2,0.1,2.4,0.3,3.6,0.5
			c0.2,0,0.5,0.1,0.7,0.1c1.3,0.3,2.5,0.5,3.8,0.8c0.9,0.2,1.7,0.5,2.6,0.6c0.9,0.1,1.8,0.1,2.6,0c0.5,0,0.9-0.2,1.4-0.3
			c0.1,0,0.2-0.1,0.3-0.2c-0.4-0.8-0.8-1.5-1.1-2.3c-0.2-0.8-0.1-1.5,0.3-2.3c0.5-0.9,1.5-1.3,2.3-1.9c1.4-0.9,2.7-1.7,4.1-2.5
			c0.4-0.3,0.8-0.6,1.3-0.7c0.6-0.2,1.3-0.4,2-0.2c1.3,0.3,1.9,1.4,2.5,2.4c0.3,0.6,0.7,1.3,1.1,1.9c0.4,0.7,0.7,1.3,1.1,2
			c0.5,1,1.1,1.9,1.6,2.9c0.6,1,1.1,2.1,1.7,3.1c0.4,0.7,0.8,1.3,1.2,1.9c0.5,0.9,1,1.9,1.5,2.8c0.9,1.6,1.8,3.2,2.8,4.8
			c0.8,1.5,1.7,3,2.5,4.4c0.6,1.1,1.2,2.1,1.7,3.2c0.5,1.1,0.4,2.2-0.3,3.2c-0.3,0.4-0.8,0.8-1.2,1c-0.9,0.6-1.8,1.1-2.6,1.6
			c-0.9,0.6-1.9,1.1-2.8,1.7c-0.4,0.3-0.9,0.6-1.3,0.7c-1.4,0.3-2.6-0.1-3.4-1.3c-0.4-0.6-0.7-1.3-1.1-1.9c0-0.1-0.1-0.1-0.2-0.2
			c-1.6,1.6-3.1,3.3-5.1,4.5c0.2,0.5,0.4,1,0.5,1.5c0.1,0.9,0.2,1.8-0.1,2.7c-0.3,0.9-0.7,1.6-1.3,2.3c-0.6,0.6-1.3,1.1-2.1,1.4
			c-0.7,0.2-1.5,0.3-2.2,0.3c-0.2,0-0.4,0-0.4,0.4c0,1.1-0.5,2-1.1,2.8c-0.8,1.1-1.9,1.7-3.2,2c-0.4,0.1-0.9,0.2-1.3,0.2
			c-0.3,0-0.4,0.2-0.5,0.5c-0.3,2-1.3,3.5-3.2,4.3c-0.9,0.4-1.8,0.4-2.7,0.4c-0.3,0-0.5,0.1-0.7,0.4c-0.7,0.9-1.4,1.7-2.3,2.4
			c-0.7,0.5-1.5,1-2.3,1.2c-1.4,0.4-2.8,0.4-4.1,0.2c-1.1-0.2-2.2-0.4-3.2-0.7c-0.7-0.2-1.5-0.3-2.2-0.5c-0.7-0.2-1.3-0.4-2-0.7
			c-0.6,0.9-1.2,1.8-2.2,2.3c-0.9,0.5-1.9,0.8-3,0.6c-1.1-0.2-2.1-0.6-2.9-1.3c-0.6-0.5-1.2-1.1-1.5-1.8
			C54.7,101.5,54.5,101.2,54.3,100.8z M66.4,99.3c1.1,0.3,2.2,0.6,3.2,0.8c0.6,0.2,1.3,0.4,2,0.4c0.8,0.1,1.7,0.1,2.5,0.1
			c1.3,0.1,2.3-0.6,3.1-1.5c0.2-0.2,0.3-0.4,0.4-0.6c-0.4-0.2-0.7-0.3-1-0.4c-1.3-0.6-2.5-1.3-3.8-1.9c-1.4-0.7-2.9-1.4-4.3-2
			c-0.6-0.3-0.9-1.3-0.7-1.9c0.3-0.8,1.2-1.4,2.2-0.9c0.4,0.2,0.7,0.3,1.1,0.5c0.8,0.4,1.6,0.8,2.5,1.2c1.1,0.5,2.3,1.1,3.4,1.6
			c0.6,0.3,1.2,0.6,1.8,0.9c0.5,0.2,0.9,0.5,1.4,0.6c0.8,0.2,1.6,0.2,2.4,0c0.4-0.1,0.8-0.3,1.1-0.6c0.4-0.5,0.5-1,0.6-1.6
			c0.1-0.3,0-0.5-0.4-0.7c-0.4-0.1-0.7-0.4-1.1-0.6c-1-0.6-1.9-1.1-2.9-1.7c-0.6-0.3-1.6-0.9-1.7-1c-0.6-0.4-1.3-0.7-1.9-1.1
			c-1-0.6-1.9-1.1-2.9-1.7c-0.8-0.5-1.6-0.9-1.5-2.1c0.1-0.9,1.2-1.6,2-1.2c1.1,0.5,2.1,1.2,3.2,1.8c0.8,0.5,1.6,0.9,2.4,1.4
			c0.6,0.4,1.3,0.8,1.9,1.1c0.3,0.2,0.6,0.4,1,0.6c1,0.6,1.9,1.1,2.9,1.7c0.4,0.2,0.8,0.5,1.2,0.6c0.8,0.1,1.6,0.1,2.4-0.2
			c0.2-0.1,0.4-0.2,0.5-0.3c0.6-0.5,0.8-1.2,0.9-1.9c0.1-0.6,0-0.9-0.5-1.1c-0.5-0.3-1-0.6-1.6-0.9c-0.8-0.5-1.7-1-2.5-1.5
			c-0.2-0.1-2.6-1.5-3.6-2.1c-0.7-0.4-1.4-0.8-2.1-1.3c-0.8-0.5-1.6-0.9-2.3-1.4c-0.5-0.4-1.2-0.5-1.5-1.2c-0.3-0.6-0.3-1.2,0.2-1.8
			c0.5-0.5,1.3-0.7,1.8-0.4c0.9,0.5,1.7,1,2.6,1.6c0.7,0.5,1.5,0.9,2.2,1.4c1,0.6,2.1,1.2,3.1,1.8c1,0.6,2.1,1.3,3.1,1.9
			c0.9,0.6,1.9,1.1,2.8,1.7c1.2,0.8,2.4,0.8,3.5,0c0.7-0.5,1-1.3,0.9-2.1c-0.1-0.8-0.5-1.5-1.2-2c-0.9-0.7-1.9-1.5-2.8-2.3
			c-1.3-1.1-2.7-2.1-4-3.1c-1-0.7-2-1.4-3-2.1c-1.6-1.1-3.2-2.3-4.8-3.4c-1.6-1-3.2-2-4.8-2.9c-1.6-0.9-3.2-1.8-4.9-2.7
			c-0.9-0.5-1.7-1-2.6-1.4c-0.3-0.1-0.6-0.4-1-0.3c-0.7,0.3-1.3,0.5-2,0.7c-0.5,0.1-0.7,0.4-0.9,0.7c-0.4,0.5-0.8,1.1-1.3,1.6
			c-1.2,1.4-2.6,2.6-4.2,3.4c-0.8,0.4-1.6,0.8-2.5,1.1c-0.5,0.2-1.1,0.3-1.7,0.4c-1.3,0.2-2.5,0.3-3.8-0.3c-1-0.5-1.6-1.3-1.7-2.4
			c-0.2-1.6,0.2-3.2,1.1-4.6c0.8-1.2,1.5-2.4,2.3-3.6c0.5-0.7,1-1.4,1.5-2.1c-0.8-0.2-1.5-0.3-2.3-0.4c-0.8-0.2-1.5-0.4-2.3-0.5
			c-1-0.2-1.8-0.7-2.6-1.2c-0.6-0.3-1.1-0.7-1.7-1.1c-0.2-0.1-0.4-0.2-0.6,0.1c-0.5,0.9-1,1.9-1.5,2.8c-0.7,1.2-1.4,2.5-2.1,3.7
			c-0.8,1.4-1.6,2.8-2.4,4.2c-0.8,1.3-1.5,2.7-2.3,4c-0.7,1.2-1.3,2.4-2,3.5c0,0.1,0,0.3,0,0.4c1.1,1.3,2.2,2.6,3.3,3.9
			c0.2,0.3,0.4,0.5,0.7,0.8c1.3-1.5,3-1.8,4.7-1.5c1.8,0.4,3.1,1.4,4,3.1c2-3.2,4.5-3.5,6.8-2.6c1.3,0.5,2.3,1.5,3,2.7
			c0.5,0.9,0.7,1.9,0.7,2.9c3.6,0.9,5.4,3.1,5.2,6.9c2.1,0.5,3.7,1.7,4.5,3.7C68.2,95.6,67.9,97.6,66.4,99.3z M69.7,53.8
			C69.7,53.8,69.7,53.8,69.7,53.8c-0.8,0.1-1.6,0.2-2.4,0.3c-0.4,0-0.9,0-1.3,0.1c-0.8,0.1-1.5,0.3-2.3,0.4
			c-0.9,0.2-1.9,0.4-2.8,0.6c-0.4,0.1-0.8,0.3-1.1,0.6c-0.5,0.6-1,1.3-1.5,1.9c-0.8,1.1-1.5,2.1-2.2,3.2c-0.6,0.9-1.2,1.7-1.8,2.6
			c-0.4,0.6-0.7,1.3-1.2,1.9c-0.5,0.7-0.7,1.4-0.8,2.2c0,0.2,0.1,0.4,0.4,0.4c0.7-0.1,1.5-0.1,2.2-0.2c0.4-0.1,0.9-0.2,1.3-0.4
			c1-0.4,1.9-1,2.8-1.7c1.1-0.9,2.1-1.9,2.9-3.1c0.3-0.4,0.5-0.8,0.9-1.1c0.6-0.3,1.2-0.5,1.9-0.8c0.7-0.3,1.5-0.6,2.2-0.7
			c0.5-0.1,1-0.1,1.5,0c0.4,0.1,0.8,0.4,1.2,0.6c1.5,0.8,3,1.6,4.5,2.4c1.5,0.8,3,1.6,4.5,2.5c1.4,0.8,2.7,1.7,4.1,2.6
			c0.8,0.5,1.7,1.1,2.5,1.7c0.8,0.5,1.5,1.1,2.3,1.7c0.8,0.6,1.6,1.2,2.4,1.7c0.6,0.4,1.1,0.8,1.7,1.2c0.8,0.6,1.6,1.2,2.3,1.8
			c0.9,0.7,1.8,1.4,2.7,2.1c0.1,0.1,0.4,0.1,0.5,0.1c0.8-0.5,1.6-1,2.3-1.6c1.1-1,2.1-2,3.2-3c0.1-0.1,0.1-0.2,0-0.3
			c-0.2-0.4-0.4-0.7-0.7-1.1c-0.5-1-1-1.9-1.5-2.9c-0.5-0.8-1-1.7-1.5-2.5c-0.5-0.8-0.9-1.6-1.3-2.4c-0.5-0.9-1.1-1.9-1.6-2.8
			c-0.6-1-1.1-2-1.7-3.1c-0.6-1.2-1.3-2.3-1.9-3.5C92.2,55.1,92,55,91.9,55c-0.5,0.1-1,0.3-1.5,0.4c-0.7,0.2-1.3,0.4-2,0.4
			c-1.4,0.1-2.7-0.1-4-0.5c-0.9-0.3-1.9-0.4-2.8-0.6c-0.6-0.1-1.1-0.3-1.7-0.4c-0.6-0.1-1.2-0.2-1.9-0.3c-0.9-0.1-1.7-0.3-2.6-0.3
			C73.5,53.7,71.6,53.8,69.7,53.8z M38.2,45.3C33.1,54.6,27.9,63.8,22.7,73c2.1,1.3,4.1,2.6,6.2,3.8c0.5-0.9,0.9-1.7,1.4-2.5
			c0.4-0.7,0.8-1.4,1.2-2.1c0.5-0.9,1-1.9,1.6-2.8c0.5-1,1.1-1.9,1.7-2.9c0.6-1,1.1-2,1.6-3c0.8-1.4,1.6-2.9,2.4-4.3
			c0.6-1.1,1.3-2.3,1.9-3.4c0.4-0.7,0.7-1.3,1.1-2c0.4-0.8,0.9-1.6,1.3-2.4c0.4-0.7,0.8-1.4,1.2-2c0.1-0.2,0.1-0.3-0.1-0.5
			c-0.5-0.2-0.9-0.5-1.4-0.8c-0.6-0.4-1.3-0.8-1.9-1.2C40,46.4,39.1,45.9,38.2,45.3z M92.5,49.1c0.4,0.8,0.8,1.5,1.2,2.3
			c0.3,0.5,0.6,0.9,0.8,1.3c0.5,0.8,0.9,1.7,1.4,2.6c0.6,1,1.1,1.9,1.7,2.9c0.5,1,1,1.9,1.6,2.9c0.5,0.9,1,1.7,1.5,2.5
			c0.7,1.2,1.4,2.5,2.1,3.7c0.8,1.4,1.6,2.9,2.5,4.3c0.5,0.9,1,1.7,1.4,2.6c0.4,0.8,0.9,1.6,1.3,2.4c0.1,0.2,0.3,0.2,0.4,0.1
			c0.2-0.1,0.5-0.3,0.7-0.5c0.9-0.5,1.8-1,2.6-1.5c0.8-0.5,1.5-1,2.3-1.4c0.2-0.1,0.3-0.2,0.1-0.4c-0.4-0.7-0.8-1.3-1.2-2
			c-0.8-1.4-1.6-2.8-2.4-4.3c-0.7-1.3-1.4-2.5-2.1-3.8c-0.5-1-1.1-2-1.6-2.9c-0.4-0.8-0.9-1.6-1.3-2.3c-0.5-0.8-0.9-1.7-1.4-2.5
			c-0.7-1.3-1.4-2.5-2.1-3.7c-0.5-0.9-1-1.9-1.5-2.8c-0.6-1-1.2-2-1.8-3.1C96.6,46.6,94.5,47.8,92.5,49.1z M46.3,93.3
			c0.5,0,0.9,0,1.2-0.5c0.6-0.8,1.1-1.6,1.7-2.4c0.9-1.2,1.7-2.3,2.6-3.5c0.7-1,1.4-1.9,2.2-2.9c0.6-0.8,0.8-1.8,0.3-2.6
			c-0.4-0.7-1-1.3-1.9-1.5c-0.4-0.1-1.3,0-1.6,0.4c-0.3,0.4-0.7,0.8-1,1.2c-0.6,0.8-1.1,1.5-1.7,2.3c-0.6,0.8-1.2,1.6-1.9,2.4
			c-0.6,0.8-1.2,1.6-1.7,2.4c-0.3,0.4-0.6,0.8-0.8,1.3c-0.2,0.6-0.1,1.2,0.2,1.7C44.3,92.4,45.3,93.5,46.3,93.3z M57.1,86.2
			c-0.5-0.1-0.9,0.2-1.3,0.6c-0.4,0.5-0.8,1.1-1.2,1.6c-1.3,1.8-2.6,3.6-4,5.4c-0.7,0.9-0.4,2.3,0.3,3.1c0.5,0.5,1,0.8,1.6,0.9
			c0.5,0.1,1,0,1.3-0.3c0.5-0.5,1-1.2,1.4-1.8c0.6-0.8,1.2-1.6,1.8-2.4c0.7-0.9,1.3-1.8,1.9-2.7c0.5-0.6,0.8-1.2,0.7-2.1
			C59.5,87.3,58.3,86.1,57.1,86.2z M64.7,95.7c0-0.2,0-0.5-0.1-0.7c-0.3-0.8-0.8-1.5-1.7-1.9c-0.6-0.3-1.6-0.2-2.1,0.3
			c-0.5,0.5-0.9,1.1-1.3,1.7c-0.6,0.7-1.1,1.5-1.7,2.2c-0.5,0.7-0.8,1.4-0.5,2.3c0.2,1,0.9,1.6,1.7,1.9c0.6,0.2,1.4,0.3,1.9-0.3
			c0.5-0.6,0.9-1.2,1.4-1.8c0.6-0.8,1.1-1.5,1.7-2.3C64.4,96.8,64.7,96.3,64.7,95.7z M38.4,84.3c0,1.2,0.6,2,1.5,2.5
			c0.9,0.5,2,0.5,2.7-0.5c0.5-0.7,1-1.5,1.6-2.2c0.6-0.7,0.9-1.4,0.5-2.4c-0.4-0.9-1-1.6-1.9-1.8c-0.8-0.2-1.5,0-2,0.7
			c-0.4,0.6-0.9,1.2-1.4,1.8C38.9,83.1,38.2,83.6,38.4,84.3z M87.3,84.2"/>
	</g>
</g>
</svg>
