<?xml version="1.0" encoding="utf-8"?>
<!-- Generator: Adobe Illustrator 24.0.0, SVG Export Plug-In . SVG Version: 6.00 Build 0)  -->
<svg version="1.1" id="Слой_1" xmlns="http://www.w3.org/2000/svg" xmlns:xlink="http://www.w3.org/1999/xlink" x="0px" y="0px"
	 width="135px" height="135px" viewBox="0 0 135 135" style="enable-background:new 0 0 135 135;" xml:space="preserve">
<style type="text/css">
	.st0{fill:#F15A29;}
	.st1{fill:#FFFFFF;stroke:#FFFFFF;stroke-width:1.2;stroke-miterlimit:10;}
</style>
<circle class="st0" cx="67.9" cy="67.4" r="66.5"/>
<g>
	<path class="st1" d="M67.3,55.5c-10.9,0-21.7,0-32.6,0c-1.4,0-1.7-0.4-1.9-1.8c-0.5-3.6,0.9-5.5,4.1-7.2
		c9.2-5.1,18.2-10.5,27.1-16.1c2.6-1.6,4.2-1.7,6.8,0c5,3.3,10.3,6.2,15.4,9.2c5,3,10,6.1,15,9.1c0.3,0.2,0.7,0.4,0.7,0.5
		c0,1.9,0.1,3.8-0.1,5.7c0,0.2-1,0.5-1.5,0.5c-5.1,0-10.1,0-15.2,0C79.2,55.5,73.3,55.5,67.3,55.5z M34.9,53.5c21.8,0,43.5,0,65.3,0
		c-0.3-1.5,0.7-3-1.3-4.1c-5.6-3.1-11.1-6.5-16.6-9.8c-4.6-2.7-9.2-5.5-13.8-8.1c-0.5-0.3-1.4-0.3-1.9,0c-2.2,1.2-4.2,2.5-6.3,3.8
		c-7.8,4.6-15.6,9.2-23.4,13.8c-1.5,0.9-2.3,1.9-1.9,3.6C34.9,52.9,34.8,53.1,34.9,53.5z"/>
	<path class="st1" d="M67.6,92c11.2,0,22.4,0,33.6,0c1.4,0,1.9,0.4,1.8,1.8c-0.1,1.4-0.1,2.9,0,4.3c0.1,1.3-0.4,1.6-1.7,1.6
		c-7.9,0-15.8,0-23.7,0c-14.6,0-29.2,0-43.8,0c-1.5,0-2.1-0.4-2-2c0.1-1.4,0.1-2.9,0-4.3c-0.1-1.1,0.4-1.5,1.5-1.4c6,0,12,0,18.1,0
		C56.9,92,62.2,92,67.6,92z M33.9,97.6c22.5,0,44.8,0,67,0c0-1.3,0-2.4,0-3.6c-22.4,0-44.7,0-67,0C33.9,95.3,33.9,96.4,33.9,97.6z"
		/>
	<path class="st1" d="M38.5,60.4c-0.6,0-1.1-0.1-1.7-0.1c0-0.6,0-1.1,0-1.7c5,0,10,0,15.2,0c0,0.5,0,1.1,0,1.7
		c-0.5,0-1.1,0.1-1.7,0.2c0,8.9,0,17.8,0,26.7c0.6,0,1.1,0.1,1.7,0.1c0,0.6,0,1.1,0,1.8c-5,0-10,0-15.2,0c0-0.6,0-1.1,0-1.7
		c0.5-0.1,1.1-0.1,1.7-0.2C38.5,78.3,38.5,69.4,38.5,60.4z M48.1,87.1c0-9,0-17.9,0-26.7c-2.6,0-5.1,0-7.5,0c0,9,0,17.8,0,26.7
		C43.2,87.1,45.6,87.1,48.1,87.1z"/>
	<path class="st1" d="M73.3,87.1c0.6,0,1.1,0.1,1.7,0.1c0,0.6,0,1.1,0,1.7c-5,0-10,0-15.2,0c0-0.5,0-1.1,0-1.7
		c0.5,0,1.1-0.1,1.7-0.1c0-8.9,0-17.8,0-26.8c-0.6,0-1.1-0.1-1.7-0.1c0-0.6,0-1.1,0-1.8c5,0,10.1,0,15.2,0c0,0.6,0,1.1,0,1.7
		c-0.5,0.1-1.1,0.1-1.7,0.2C73.3,69.3,73.3,78.1,73.3,87.1z M63.7,60.4c0,9,0,17.9,0,26.7c2.6,0,5.1,0,7.5,0c0-9,0-17.8,0-26.7
		C68.7,60.4,66.3,60.4,63.7,60.4z"/>
	<path class="st1" d="M82.8,89c0-0.6,0-1.1,0-1.7c0.6-0.1,1.1-0.1,1.8-0.2c0-8.9,0-17.7,0-26.7c-0.6,0-1.1-0.1-1.7-0.1
		c0-0.6,0-1.1,0-1.7c5,0,10,0,15.2,0c0,0.5,0,1.1,0,1.7c-0.6,0-1.1,0.1-1.7,0.1c0,8.9,0,17.8,0,26.8c0.6,0,1.1,0.1,1.7,0.1
		c0,0.6,0,1.1,0,1.8C93,89,88,89,82.8,89z M86.7,87.1c2.6,0,5,0,7.5,0c0-9,0-17.8,0-26.7c-2.6,0-5,0-7.5,0
		C86.7,69.4,86.7,78.2,86.7,87.1z"/>
	<path class="st1" d="M67.6,48.8c6.4,0,12.9,0,19.3,0c0.7,0,1.6-0.3,1.6,1c0,1.2-0.9,1-1.6,1c-12.9,0-25.9,0-38.8,0
		c-0.2,0-0.4,0.1-0.5,0c-0.5-0.3-0.9-0.6-1.3-1c0.4-0.3,0.9-0.9,1.3-0.9c4.3-0.1,8.5,0,12.8,0C62.8,48.8,65.2,48.8,67.6,48.8z"/>
</g>
</svg>
