<?xml version="1.0" encoding="utf-8"?>
<!-- Generator: Adobe Illustrator 24.0.0, SVG Export Plug-In . SVG Version: 6.00 Build 0)  -->
<svg version="1.1" id="Слой_1" xmlns="http://www.w3.org/2000/svg" xmlns:xlink="http://www.w3.org/1999/xlink" x="0px" y="0px"
	 width="135px" height="135px" viewBox="0 0 135 135" style="enable-background:new 0 0 135 135;" xml:space="preserve">
<style type="text/css">
	.st0{fill:#F15A29;}
	.st1{fill:#FFFFFF;stroke:#FFFFFF;stroke-width:0.25;stroke-miterlimit:10;}
</style>
<circle class="st0" cx="67.9" cy="67.4" r="66.5"/>
<g>
	<path class="st1" d="M101,83.9c-0.5,0.1-1,0.1-1.4,0.3c-2.5,0.8-4.9,1.8-7.3,2.5C87.2,88,82,88.1,76.7,87.9c-0.6,0-1.1-0.9-1.7-1.4
		c0.6-0.5,1.2-1.3,1.9-1.4c4.2-0.4,8.6-0.4,12.8-1c3.9-0.6,8-1.3,10.8-4.5c0.7-0.8,0.6-2.4,0.7-3.7c0-0.1-0.9-0.4-1.1-0.3
		c-3.6,2.2-7.7,2.9-11.7,3.5c-3.6,0.5-7.2,0.4-10.9,0.4c-0.4,0-1.2-1.1-1.1-1.5c0.1-0.6,0.9-1.4,1.4-1.5c2.4-0.2,4.9,0.1,7.3-0.1
		c4.5-0.4,9-1.3,13.1-3.3c2.3-1.1,3.9-2.8,2.9-5.9c-0.4,0.1-0.9,0.1-1.3,0.3c-7.2,3.3-14.9,3.9-22.7,3.8c-1.1,0-2.5-0.3-2-1.7
		c0.2-0.6,1.5-1.4,2.2-1.4c6.2,0.2,12.3-0.1,18.2-2.5c1.8-0.7,3.6-1.5,5-2.8c0.8-0.7,0.6-2.4,0.8-3.6c0-0.1-0.9-0.6-1.1-0.4
		c-3.1,2-6.8,2.8-10.3,3.4c-4.2,0.7-8.6,0.5-13,0.6c-1.5,0-3.1-0.1-4.6-0.4c-0.7-0.2-1.2-1-1.8-1.5c0.6-0.5,1.2-1.2,2-1.5
		c0.8-0.2,1.8,0,2.7,0.1c7.2,0.5,14.3,0.3,21.1-2.3c1.2-0.4,2.3-1,3.4-1.7c1.9-1.3,2.3-3.2,1.7-5.5c-1.4,0.6-2.8,1.3-4.2,1.8
		c-8.3,2.9-16.9,3.8-25.6,2.1c-3.5-0.7-6.9-1.5-10.3-2.4c-0.5-0.1-1.1-0.5-1.5-0.8c-0.9-0.7-1.7-0.9-2.6,0.1c-1,1.1-2,0.3-2-0.7
		c-0.2-2.5-0.4-5.1,0.2-7.4c0.3-1.4,2-2.8,3.4-3.4c3-1.4,6.2-2.6,9.4-3.2c4.1-0.8,8.3-1.4,12.5-1.4c6.1-0.1,12.1,0.9,17.7,3.1
		c2.4,0.9,4.6,2.4,6,4.7c0.3,0.5,0.4,1.2,0.4,1.8c0,2.9,0.3,5.9-0.1,8.8c-0.3,2.2-0.4,4.2,0,6.4c0.3,1.5-0.5,3.2-0.7,4.8
		c-0.1,0.3,0,0.6,0,0.9c0.3,1.7,0.6,3.4,0.8,5.2c0.1,0.5-0.4,1-0.4,1.6c-0.1,0.8,0,1.6,0,2.4c0,2,0,4,0,6.1c0,0.6-0.4,1.2-0.2,1.7
		c1.9,5.4,0.7,7.5-3.5,10c-5.5,3.3-11.8,3.7-17.9,4.3c-3,0.3-6.1-0.2-9.2-0.4c-1.1-0.1-2.4-0.4-2.1-1.8c0.3-1.4,1.5-1.4,2.8-1.2
		c5.6,0.8,11.2,0.6,16.7-0.8c2.2-0.6,4.4-1.2,6.5-1.8C100.3,89.4,101.7,87.2,101,83.9z M78.9,51.5c6.5,0.1,12.5-0.7,18.1-3.1
		c1.6-0.7,3.5-2,4.1-3.5c0.7-1.7-1.7-2.5-2.9-3.5c-0.2-0.2-0.5-0.4-0.8-0.5c-5.3-2-10.9-3.2-16.6-3.1c-4.9,0.1-9.8,0.7-14.6,1.6
		c-2.5,0.5-4.8,1.9-7.1,3.1c-1.6,0.8-1.8,2.8-0.7,3.9c0.9,0.8,1.9,1.6,3,2C67.2,50.5,73.2,51.7,78.9,51.5z"/>
	<path class="st1" d="M49.2,102.9c-13.3,0.6-24.9-11.3-24.8-24.8c0-13.8,11.6-25.3,25.5-25c13,0.3,24.3,11,24.3,25.3
		C74.2,91.8,62.6,103.6,49.2,102.9z M49.4,99.8c11.8,0.8,22-10.3,21.9-21.7c-0.1-12-10.1-21.8-21.7-21.9c-12.3-0.1-22.1,9.9-22.1,22
		C27.4,89.6,37.5,100.5,49.4,99.8z"/>
	<path class="st1" d="M50.6,93.1c-1.9,0.4-3,0-2.8-2.1c0-0.5-0.9-1.3-1.5-1.5c-2-0.7-3.8-2.9-3.6-4.9c0-0.5,0.7-1.3,1.1-1.3
		c0.7,0,1.8,0.4,2,0.9c0.7,2.4,0.8,2.5,4.2,2.5c1.6,0,2.5-0.6,2.8-2.2c0.4-2.3-0.3-3.6-2.2-4.4c-1.8-0.7-3.7-1.3-5.5-2.1
		c-1.6-0.7-2.6-3.1-2.4-5.1c0.2-2.3,1.4-3.7,3.3-4.4c0.7-0.3,1.7-1.1,1.8-1.8c0.4-2.2,0.3-2.2,3-1.7c-0.5,2.2,0.5,3.3,2.8,3.8
		c1.4,0.3,2.7,3.2,2.4,4.6c-0.1,0.5-0.9,1.2-1.5,1.2c-0.5,0-1.4-0.6-1.5-1c-0.3-1-0.3-2.2-1.6-2.2c-1.7,0-3.5-0.1-5,0.6
		c-1.3,0.6-0.5,3,1.2,3.8c1.6,0.7,3.2,1.1,4.8,1.6c1.8,0.6,3.1,1.8,3.3,3.6c0.2,2-0.1,4.1-0.6,6.1c-0.2,0.8-1.3,1.9-2.2,2
		c-2,0.3-2.3,1.5-2.1,3.1C50.8,92.6,50.7,92.8,50.6,93.1z"/>
</g>
</svg>
