<?xml version="1.0" encoding="utf-8"?>
<!-- Generator: Adobe Illustrator 24.0.0, SVG Export Plug-In . SVG Version: 6.00 Build 0)  -->
<svg version="1.1" id="Слой_1" xmlns="http://www.w3.org/2000/svg" xmlns:xlink="http://www.w3.org/1999/xlink" x="0px" y="0px"
	 width="536px" height="178px" viewBox="0 0 536 178" style="enable-background:new 0 0 536 178;" xml:space="preserve">
<style type="text/css">
	.st0{fill:#FFFFFF;}
</style>
<g>
	<polygon class="st0" points="177.2,79.3 182.8,79.3 182.8,44.8 177.2,44.8 177.2,38.1 212.1,38.1 212.1,50.5 204.7,50.5 
		204.7,45.2 191.5,45.2 191.5,58.3 207,58.3 207,65.4 191.5,65.4 191.5,78.8 205.7,78.8 205.7,73.5 213.1,73.5 213.1,85.9 
		177.2,85.9 	"/>
	<path class="st0" d="M241.2,60.5c4.6,0,7.6-2.8,7.6-7.9c0-3.1-1.1-5.5-3.7-6.6c-1.3-0.6-3.1-0.9-5.3-0.9h-6.4v15.3H241.2z
		 M219,79.3h5.6V44.8H219v-6.7h20.8c3.4,0,6.3,0.2,9,1c5.2,1.8,8.7,6.1,8.7,12.8c0,6.7-3.4,11.4-8.9,13.2v0.1c0,0,1.4,0.7,2.3,2.5
		l5.4,10c0.7,1.2,1.6,1.5,3.2,1.5h1.5v6.6h-5.5c-3.9,0-5.1-0.8-6.6-3.6L242.2,70c-1-1.8-1.9-2.4-4.6-2.4h-4.3v11.7h5.4v6.6H219V79.3
		z"/>
	<polygon class="st0" points="265.9,79.3 271.5,79.3 271.5,44.8 265.9,44.8 265.9,38.1 285.9,38.1 285.9,44.8 280.2,44.8 
		280.2,79.3 285.9,79.3 285.9,85.9 265.9,85.9 	"/>
	<path class="st0" d="M315.8,37.3c5.7,0,18.4,2,18.4,9.5v6.5h-7.9v-3.7c0-3.6-6.2-4.8-10.1-4.8c-9.1,0-15.7,6.5-15.7,16.5
		c0,10.8,6.9,17.8,16.2,17.8c2.9,0,10.2-0.9,10.2-4.7v-3.7h7.9v6.5c0,7.1-12.1,9.4-18.6,9.4c-14.3,0-24.6-11-24.6-24.9
		C291.5,47.7,302.1,37.3,315.8,37.3"/>
	<path class="st0" d="M340.8,79.3h5.6V44.8h-5.6v-6.7h18.8v6.7h-4.5v13h5.2l9-13h-4v-6.7h17.2v6.7h-4.2l-11.3,15.8v0.1
		c0,0,1.6,0.7,3.1,3.6l7.2,13.3c0.6,1.1,1.5,1.7,3.1,1.7h2.2v6.6h-6c-4,0-5.2-1-6.6-3.6l-8.2-15.7c-0.7-1.3-1.7-1.8-3.5-1.8h-3v14.5
		h5.4v6.6h-19.8V79.3z"/>
	<path class="st0" d="M395.3,70.5v3.6c0,3.1,3.8,4.9,8.3,4.9c4.8,0,8.2-2.1,8.2-5.9c0-4.8-5.4-6.4-10.8-8.5
		c-6.3-2.4-12.5-5.3-12.5-13.9c0-9.6,7.7-13.3,15.8-13.3c7.4,0,14.9,2.9,14.9,8.4V52h-7.9v-3.2c0-2.4-3.5-3.7-7-3.7
		c-3.8,0-7,1.6-7,5.2c0,4.4,4.4,5.9,9.3,7.8c7,2.6,14.1,5.4,14.1,14.3c0,9.8-8.1,14.3-17,14.3c-7.8,0-16.2-3.6-16.2-10.8v-5.4H395.3
		z"/>
	<path class="st0" d="M450.3,79c8.5,0,15.5-7.5,15.5-17.3c0-9.4-7-16.6-15.5-16.6c-8.5,0-15.5,7.2-15.5,16.6
		C434.9,71.5,441.8,79,450.3,79 M450.3,37.3c13.9,0,24.4,10.7,24.4,24.3c0,14.1-10.5,25-24.4,25c-13.9,0-24.4-11-24.4-25
		C425.9,48,436.4,37.3,450.3,37.3"/>
	<path class="st0" d="M480.2,79.3h5.6V44.8h-5.6v-6.7h14.3l19.8,30.7c0.9,1.5,1.7,4,1.7,4h0.2c0,0-0.3-2.8-0.3-4.5V44.8h-5.8v-6.7
		h20.2v6.7h-5.6v41.1h-8.7l-19.8-30.6c-0.9-1.6-1.7-4-1.7-4h-0.3c0,0,0.4,2.7,0.3,4.4v23.6h5.8v6.6h-20.2V79.3z"/>
	<g>
		<path class="st0" d="M3.8,107.7c-0.2,0-0.3,0.1-0.3,0.2c-5.2,26.8,9.8,35.6,24.3,44c9.7,5.7,18.9,11,22.3,21.4
			c0,0.1,0.2,0.2,0.3,0.2h0.1c0.2,0,0.3-0.1,0.3-0.3c0.1-22.4-12.5-30.6-24.6-38.6C16.1,128.1,6.6,121.8,4.2,108
			C4.2,107.8,4,107.7,3.8,107.7L3.8,107.7z"/>
		<path class="st0" d="M50.9,173.3c0.1-22.4-12.5-30.6-24.6-38.6C16.1,128.1,6.6,121.8,4.2,108c0-0.1-0.2-0.2-0.3-0.2h0
			c-0.1,0-0.3,0.1-0.3,0.2c-5.2,26.8,9.8,35.6,24.3,44c9.7,5.7,18.9,11,22.3,21.4c0,0.1,0.2,0.2,0.3,0.2h0.1
			C50.7,173.6,50.8,173.5,50.9,173.3"/>
		<path class="st0" d="M23.1,75.6c-0.1,0-0.3,0.1-0.3,0.2c-9.6,27.4,5,38.2,20.4,49.7c14.9,11.1,30.3,22.5,26.4,50
			c0,0.1,0.1,0.3,0.3,0.3c0,0,0,0,0.1,0c0.1,0,0.3-0.1,0.3-0.2c15.1-38-3.5-52.5-21.5-66.6c-11.9-9.3-23.1-18.1-25.3-33.2
			C23.4,75.7,23.3,75.6,23.1,75.6L23.1,75.6z"/>
		<path class="st0" d="M70.3,175.6c15.1-38-3.5-52.5-21.5-66.6c-11.9-9.3-23.1-18.1-25.3-33.2c0-0.1-0.1-0.2-0.3-0.2h-0.1
			c-0.1,0-0.3,0.1-0.3,0.2c-9.6,27.4,5,38.2,20.4,49.7c14.9,11.1,30.3,22.5,26.4,50c0,0.1,0.1,0.3,0.3,0.3c0,0,0,0,0.1,0
			C70.1,175.8,70.2,175.7,70.3,175.6"/>
		<path class="st0" d="M50,37.6c-6.8,13.6-7.9,24.5-3.4,34.2c4.1,8.7,12.1,15.5,20.6,22.6c18.8,15.8,40.1,33.6,26.3,78.9
			c0,0.1,0,0.3,0.2,0.3c0,0,0.1,0,0.1,0c0.1,0,0.3-0.1,0.3-0.2c7.8-12.8,12.6-24.1,14.7-34.6c1.8-9.3,1.4-17.7-1.4-25.6
			c-5-14.7-17.1-25.3-28.8-35.5C65,65.8,52.1,54.6,50.6,37.7c0-0.1-0.1-0.2-0.3-0.3h-0.1C50.2,37.4,50,37.5,50,37.6"/>
		<path class="st0" d="M50,37.6c-6.8,13.6-7.9,24.5-3.4,34.2c4.1,8.7,12.1,15.5,20.6,22.6c18.8,15.8,40.1,33.6,26.3,78.9
			c0,0.1,0,0.3,0.2,0.3c0,0,0.1,0,0.1,0h0c0.1,0,0.2-0.1,0.3-0.2c7.8-12.8,12.6-24.1,14.7-34.6c1.8-9.3,1.4-17.7-1.4-25.6
			c-5-14.7-17.1-25.3-28.8-35.5C65,65.8,52.1,54.6,50.6,37.7c0-0.1-0.1-0.2-0.3-0.3h-0.1C50.2,37.4,50,37.5,50,37.6"/>
		<path class="st0" d="M122.5,173.5c6.7-9.1,12-17.6,16.2-25.6c3.4-6.7,6-13,7.8-19.2c0.7-2.3,1.2-4.6,1.7-6.8
			c0.9-4.3,1.3-8.5,1.3-12.6c0-4.8-0.6-9.5-1.7-14c-0.7-2.7-1.6-5.2-2.7-7.7c-6.5-15.4-19.3-27.3-31.7-38.9
			C98.1,34.4,83.7,21,82.4,2.5c0-0.3-0.1-0.5-0.1-0.8c0-0.1-0.1-0.2-0.3-0.3c0,0-0.1,0-0.1,0c-0.1,0-0.2,0-0.2,0.1
			c0,0-0.1,0-0.1,0.1C73.8,14.5,71,25.2,73.2,35c0.3,1.5,0.8,3.1,1.4,4.6c3.9,9.8,12.8,17.8,22.2,26.2c7.3,6.6,15,13.5,21.3,21.8
			c5,6.6,9,14.1,11.4,23.2c4,15.5,3,35.3-7.4,62.5c0,0,0,0,0,0c0,0.1,0,0.2,0.1,0.2c0,0,0,0.1,0.1,0.1c0.1,0,0.1,0,0.1,0
			C122.3,173.6,122.4,173.6,122.5,173.5"/>
	</g>
	<path class="st0" d="M180.9,108.1l-0.1-0.3l-0.1,0l-0.1,0.3l0,1l0.1,0L180.9,108.1z M179.1,105.3h1.3c0.7,0.5,1,0.9,1,1.2l-0.4,9
		v0.6c0,3.8,0.9,7,2.7,9.4v0.2l-0.4,0.4c-2.9,0-4.6-3.5-5-10.5v-1.6C178.3,108.1,178.6,105.3,179.1,105.3"/>
	<path class="st0" d="M212.6,105.1c0.7,0,1.1,0.3,1.4,0.9l-0.4,2.1c0.4,0,0.6,0.1,0.6,0.4v0.2c-0.5,0-0.8,0.3-0.8,0.7l0.4,0.4h-0.4
		v0.2l0.2,1.5l-0.6,0.6h-0.2c0.5,0.6,0.8,1.5,0.8,2.6v0.2l-0.2,0.2v0.2h0.4l-0.6,0.9v0.6c0,0.4,0.2,0.9,0.6,1.3v1.1l0.2,0.9
		l-0.6,3.4l0.2,0.2c-0.2,1.1-0.4,1.7-0.8,1.7c0-0.3-0.3-0.5-1-0.6v0.2l-0.6,0.6c-3-2.6-4.9-5-5.8-7.2c-1.1-3.8-2-5.7-2.8-5.7
		c0,0.4-0.1,0.6-0.4,0.6l0.6,1.7v0.2l-1.4,1.9h-0.2V117l0.4-0.9c-2.2,2.2-3.4,4.3-3.8,6.1c0,0.4-0.2,0.6-0.6,0.6v0.4l0.2-0.2h0.2
		l0.2,0.2v0.2l-0.6,0.6l-0.2-0.2v0.2l0.2,0.2v0.2l-1.2,2.6H196c-0.3,0-0.4-0.2-0.4-0.6l-1.2,1c-0.2,0-0.6-0.5-1-1.5
		c0-0.8,2-4.6,5.9-11.3c1.7-2.6,3.1-4,4.2-4c1.1,0,2.8,3.1,5,9.3c0.9,1.2,1.7,2,2.4,2.5h0.2l0.4-6.1l0.2-0.2v-0.2l-0.2-0.2l0.4-7.2
		h0.2l-0.2-0.2l0.2-0.9v-1.5L212.6,105.1z"/>
	<path class="st0" d="M232.2,105.3l0.5,0.2l0.1-0.2l0.9,0.2c6.1,0.4,9.1,1.2,9.1,2.4l0.1,0.9l-0.3,0.4l0.2,0.2l-1.1,0.4
		c-2.1-1.2-4.7-1.8-8-1.8H231c-0.3,0-0.7,3.9-1.1,11.7v3.7l0.2,1.1c-0.6,0.7-1,1.1-1.2,1.1c-0.5-0.9-0.8-2.1-0.8-3.5v-2.2l0.6-11.3
		v-0.4l-7.2,0.7c-0.5,0-0.9-0.6-1.1-1.8l0.3-1.5l2.3,0.2l8.6-0.4L232.2,105.3z"/>
	<path class="st0" d="M266.1,105.3v0.2l0.2-0.2h2.3l0.7,0.2l0.7-0.2v0.4l-0.5,0.2v-0.2l-0.2,0.2h-0.2l-0.2-0.2h-0.2l-0.2,0.2v0.2
		l-1.2-0.4l-0.5,0.6h-0.2l0.2-0.2v-0.2h-0.7v0.6h-1l-0.2-0.6l-0.8,0.6h-0.2l-0.5-0.4c0,0.4-0.1,0.6-0.3,0.6l-0.3-0.4v0.2l-0.2-0.2
		h-0.5c0,0.7-0.2,1-0.5,1.1h-0.2l0.3-0.6h-0.3v0.4H261c-0.2,0-0.3-0.2-0.3-0.6h-0.2c0,0.4-0.5,0.8-1.5,1c0,0.4-0.1,0.6-0.3,0.6h-0.5
		v-0.4h-0.7l0.1,0.2v0.2l-0.3,0.4H257l-0.5-0.4h-0.3l0.2,0.2v0.4c-1.9,0.5-3.7,1.1-5.4,1.9l1,1.3v0.6l-2.2,1.7l-1.7,2.8v0.4h0.2
		c2.7-1.4,7.8-2.9,15.2-4.3l0.3,0.8c0,1.1-1.2,1.8-3.5,2.1l-0.2-0.2l-5,1.3l-0.2-0.2c-0.2,0.3-1.2,0.8-3.2,1.5l-0.3,0.6v0.2
		c0.3,0,0.5,0.1,0.5,0.4c0,0.3-0.4,0.6-1.3,0.7c-1.8,0-2.7-0.8-2.7-2.3h-0.3l-0.5,2.4v0.9c0,1.3,1,1.9,3,1.9h1.3
		c3.6,0,6.9-0.9,10-2.8h0.3c0.2,0,0.4,0.4,0.7,1.3h-0.2l0.3,0.9h-0.2l-0.8,0.2l-0.2-0.2c0,0.4-0.1,0.6-0.3,0.6L261,123
		c-1.3,1.1-4.5,2-9.9,2.6c-2.7,0-4.6-0.9-5.7-2.6l-0.5-2.3c0-2.2,1.1-5,3.4-8.3v-0.4l-0.7-0.2l-0.2,0.2c-0.4-0.5-0.7-1-0.7-1.5V110
		c0.8-0.7,2.4-1.3,4.7-1.9l0.5,0.2c0.8-0.1,1.2-0.4,1.2-0.7l0.5,0.2l7-1.7l0.5,0.2l2.3-0.6v0.2L266.1,105.3z"/>
	<path class="st0" d="M279.7,121.2c0.1,0.4,0.9,0.9,2.2,1.7v-0.4c-0.3-0.9-0.7-1.3-1.4-1.3H279.7z M275.2,113.1v0.2
		c0,0.9,0.6,2.5,1.8,4.9h0.4c0.2-0.3,0.9-0.4,2-0.4c0-0.3,0.3-0.5,1-0.6c-0.5-2.2-0.8-4.2-0.8-6.2v-1.1l0.6-0.6c0.7,0,1.4,0.6,2,1.7
		v2.3c0,1.7,0.3,2.6,0.8,2.6c3.7-2.9,5.5-5.2,5.5-6.8v-0.2c-0.6-1-1.8-1.5-3.5-1.5H284c-2.7,0-5.6,1.6-8.6,4.7L275.2,113.1z
		 M283.2,105h2.2c1.6,0,3.4,1.1,5.1,3.4v0.2c-0.1,1.2-0.4,2.3-1,3.4c-0.8,1.6-1.3,2.3-1.6,2.3l-0.4,0.4c0,0.3-0.4,0.4-1.2,0.4
		c0,0.5-0.5,1.1-1.6,1.7l-0.2,0.2l-0.2-0.2c0,0.7-0.5,1.1-1.4,1.3l-0.2,0.6c0.5,0.3,3.5,0.9,9,1.9c4.6,1.6,7.3,2.8,8,3.6v0.2
		c0,1.1-0.8,1.7-2.4,1.9c-1.2-1.9-5.7-3.4-13.5-4.7c0,0.5,0.3,1,0.8,1.5l1,1.9c0,0.4-0.5,0.7-1.6,1.1c-4.4-2.1-7.9-6.2-10.4-12.1
		l-0.2-2.1c0-2.7,2.9-4.9,8.8-6.6L283.2,105z"/>
	<path class="st0" d="M326.5,105.1c0.7,0,1.1,0.3,1.4,0.9l-0.4,2.1c0.4,0,0.6,0.1,0.6,0.4v0.2c-0.5,0-0.8,0.3-0.8,0.7l0.4,0.4h-0.4
		v0.2l0.2,1.5l-0.6,0.6h-0.2c0.5,0.6,0.8,1.5,0.8,2.6v0.2l-0.2,0.2v0.2h0.4l-0.6,0.9v0.6c0,0.4,0.2,0.9,0.6,1.3v1.1l0.2,0.9
		l-0.6,3.4l0.2,0.2c-0.2,1.1-0.4,1.7-0.8,1.7c0-0.3-0.3-0.5-1-0.6v0.2l-0.6,0.6c-3-2.6-4.9-5-5.8-7.2c-1.1-3.8-2-5.7-2.8-5.7
		c0,0.4-0.1,0.6-0.4,0.6l0.6,1.7v0.2l-1.4,1.9h-0.2V117l0.4-0.9c-2.2,2.2-3.4,4.3-3.8,6.1c0,0.4-0.2,0.6-0.6,0.6v0.4l0.2-0.2h0.2
		l0.2,0.2v0.2l-0.6,0.6l-0.2-0.2v0.2l0.2,0.2v0.2l-1.2,2.6h-0.2c-0.3,0-0.4-0.2-0.4-0.6l-1.2,1c-0.2,0-0.6-0.5-1-1.5
		c0-0.8,2-4.6,5.9-11.3c1.7-2.6,3.1-4,4.2-4c1.1,0,2.8,3.1,5,9.3c0.9,1.2,1.7,2,2.4,2.5h0.2l0.4-6.1l0.2-0.2v-0.2l-0.2-0.2l0.4-7.2
		h0.2l-0.2-0.2l0.2-0.9v-1.5L326.5,105.1z"/>
	<path class="st0" d="M350.8,107.3l-2.3,3l0.2,0.2v0.2l-0.2,0.2h-0.2l-0.2-0.2v0.2l0.2,0.7h-0.2l0.2,0.2v0.3l-0.4,0.3v-0.8h-0.2
		l-0.6,1.8v0.2h0.2v-0.3h0.2v0.3c-0.1,0.7-0.3,1-0.6,1l-0.2-0.2l0.2,1.2v0.8l2.9-0.8l0.2,0.2h0.2l2.7-0.8l0.6,0.2l0.2-0.2l0.2,0.2
		l0.2-0.2v-0.2c0-0.9-1-3.4-3.1-7.3H350.8z M342.1,121.1v0.3h1l0.2-1h-0.2L342.1,121.1z M350.4,105.3c1.7,0,3.2,1.9,4.4,5.6l0.2,0.2
		v0.2l-0.2,1c0.4,0,0.7,0.6,1,1.8c0.5,0.3,1.1,0.5,1.7,0.5l0.2,0.2v0.2c0,0.2-0.3,0.3-0.9,0.3v0.1l0.4,1.3l-0.2-0.2h-0.2v0.3h0.2
		l0.2-0.2h0.2c0.1,1,0.3,1.5,0.6,1.5l-0.2,0.2v0.3h0.2v-0.3h0.4l0.8,2l-0.2,0.2c0.3,0,0.7,0.3,0.9,0.8l-0.2,0.2v0.2
		c0.8,0.7,1.2,1.6,1.2,2.5l-1,1.3h-0.4c-1.8-0.4-2.7-0.8-2.7-1.2c1.2-0.2,1.7-0.5,1.7-0.7c0-0.4-1.2-2.9-3.5-7.3
		c-0.2,0-0.4-0.2-0.6-0.7c-0.8,0-1.2,0.2-1.2,0.5l-0.2-0.2h-0.2l-0.8,0.7l-0.2-0.2h-0.2c-1.1,0.2-2,0.6-2.7,1l-0.6-0.2
		c-0.2,0.3-1,0.7-2.5,1.3l-1,2.5l0.2,0.2h0.2l-0.6,1l0.2,0.2v0.2c-0.4,1.5-0.8,2.4-1.2,2.8c0,0.3-0.1,0.5-0.4,0.5l0.6,2.7l-1,0.5
		c-1-0.1-1.5-0.5-1.5-1.2c0-1.1,0.3-2.9,1-5.3c-2.6-0.2-3.9-0.9-3.9-2.2v-0.3c1-0.7,2.8-1.7,5.6-3
		C346.6,109.3,348.7,105.3,350.4,105.3"/>
	<path class="st0" d="M378.2,105.3l0.5,0.2l0.1-0.2l0.9,0.2c6.1,0.4,9.1,1.2,9.1,2.4l0.1,0.9l-0.3,0.4l0.2,0.2l-1.1,0.4
		c-2.1-1.2-4.8-1.8-8-1.8H377c-0.3,0-0.7,3.9-1.1,11.7v3.7l0.2,1.1c-0.6,0.7-1,1.1-1.2,1.1c-0.5-0.9-0.8-2.1-0.8-3.5v-2.2l0.6-11.3
		v-0.4l-7.2,0.7c-0.5,0-0.9-0.6-1.1-1.8l0.3-1.5l2.3,0.2l8.6-0.4L378.2,105.3z"/>
	<path class="st0" d="M394.2,108.1l-0.1-0.3l-0.1,0L394,108l0,1l0.1,0L394.2,108.1z M392.5,105.3h1.2c0.7,0.5,1,0.9,1,1.2l-0.4,9
		v0.6c0,3.8,0.9,7,2.7,9.4v0.2l-0.4,0.4c-2.9,0-4.6-3.5-5-10.5v-1.6C391.6,108.1,391.9,105.3,392.5,105.3"/>
	<path class="st0" d="M420.6,107.2l-0.2-0.3h-0.2l-2.1,0.5l-0.2-0.2h-0.2l-1.3,1l-0.2-0.3h-0.4l-0.4,0.5h0.8l-1.9,1.3v1.3l-0.2,0.2
		v0.3l0.4,0.5c-0.4,0-0.6,0.2-0.6,0.5h0.4c-0.2,0.7-0.6,1.3-1.3,1.8v-0.7c-1.1,1-1.7,2.1-1.7,3.3c0,2.8,1,4.6,2.9,5.6
		c0.9,0.5,1.9,0.8,2.9,0.8h1.1c6.5,0,10.3-1.7,11.6-5.1l0.2-2.5c0-3.3-1.7-5.9-5-7.8v-0.3l-0.2,0.3c-1-0.1-1.5-0.3-1.5-0.5l-0.2,0.2
		h-0.2l-1.1-0.7L420.6,107.2z M421.6,105.5h1.9c4.3,1.2,6.5,2.5,6.5,4c1,0,1.9,2.9,2.5,8.6c-1.3,3.9-3.1,5.8-5.3,5.8l-2.3,1
		l-0.2-0.2v-0.3c-1.3,0.3-2.1,0.7-2.3,1c-0.7,0-1-0.2-1-0.5l-0.9,0.5l-0.2-0.2h-0.6v0.7h-0.4l-0.2-0.3l-0.2,0.3H418v-0.5h-0.2
		l-0.6,0.5c-4.9-1.5-7.4-2.9-7.4-4c-0.7-1-1.1-2.1-1.1-3.3v-0.5c0-3.6,1.3-6.6,3.8-9.1C414.9,106.6,417.9,105.5,421.6,105.5"/>
	<path class="st0" d="M461.7,105.1c0.7,0,1.1,0.3,1.4,0.9l-0.4,2.1c0.4,0,0.6,0.1,0.6,0.4v0.2c-0.5,0-0.8,0.3-0.8,0.7l0.4,0.4h-0.4
		v0.2l0.2,1.5l-0.6,0.6h-0.2c0.5,0.6,0.8,1.5,0.8,2.6v0.2l-0.2,0.2v0.2h0.4l-0.6,0.9v0.6c0,0.4,0.2,0.9,0.6,1.3v1.1l0.2,0.9
		l-0.6,3.4l0.2,0.2c-0.2,1.1-0.4,1.7-0.8,1.7c0-0.3-0.3-0.5-1-0.6v0.2l-0.6,0.6c-3-2.6-4.9-5-5.8-7.2c-1.1-3.8-2-5.7-2.8-5.7
		c0,0.4-0.1,0.6-0.4,0.6l0.6,1.7v0.2l-1.4,1.9h-0.2V117l0.4-0.9c-2.2,2.2-3.4,4.3-3.8,6.1c0,0.4-0.2,0.6-0.6,0.6v0.4l0.2-0.2h0.2
		l0.2,0.2v0.2l-0.6,0.6l-0.2-0.2v0.2l0.2,0.2v0.2l-1.2,2.6h-0.2c-0.3,0-0.4-0.2-0.4-0.6l-1.2,1c-0.2,0-0.6-0.5-1-1.5
		c0-0.8,2-4.6,5.9-11.3c1.7-2.6,3.1-4,4.2-4c1.1,0,2.8,3.1,5,9.3c0.9,1.2,1.7,2,2.4,2.5h0.2l0.4-6.1l0.2-0.2v-0.2l-0.2-0.2l0.4-7.2
		h0.2l-0.2-0.2l0.2-0.9v-1.5L461.7,105.1z"/>
	<path class="st0" d="M486.1,107.3l-2.3,3l0.2,0.2v0.2l-0.2,0.2h-0.2l-0.2-0.2v0.2l0.2,0.7h-0.2l0.2,0.2v0.3l-0.4,0.3v-0.8H483
		l-0.6,1.8v0.2h0.2v-0.3h0.2v0.3c-0.1,0.7-0.3,1-0.6,1l-0.2-0.2l0.2,1.2v0.8l2.9-0.8l0.2,0.2h0.2l2.7-0.8l0.6,0.2l0.2-0.2l0.2,0.2
		l0.2-0.2v-0.2c0-0.9-1-3.4-3.1-7.3H486.1z M477.4,121.1v0.3h1l0.2-1h-0.2L477.4,121.1z M485.7,105.3c1.7,0,3.2,1.9,4.4,5.6l0.2,0.2
		v0.2l-0.2,1c0.4,0,0.7,0.6,1,1.8c0.5,0.3,1.1,0.5,1.7,0.5l0.2,0.2v0.2c0,0.2-0.3,0.3-0.9,0.3v0.1l0.4,1.3l-0.2-0.2H492v0.3h0.2
		l0.2-0.2h0.2c0.1,1,0.3,1.5,0.6,1.5l-0.2,0.2v0.3h0.2v-0.3h0.4l0.8,2l-0.2,0.2c0.3,0,0.7,0.3,0.9,0.8l-0.2,0.2v0.2
		c0.8,0.7,1.2,1.6,1.2,2.5l-1,1.3h-0.4c-1.8-0.4-2.7-0.8-2.7-1.2c1.2-0.2,1.7-0.5,1.7-0.7c0-0.4-1.2-2.9-3.5-7.3
		c-0.2,0-0.4-0.2-0.6-0.7c-0.8,0-1.2,0.2-1.2,0.5l-0.2-0.2h-0.2l-0.8,0.7l-0.2-0.2H487c-1.1,0.2-2,0.6-2.7,1l-0.6-0.2
		c-0.2,0.3-1,0.7-2.5,1.3l-1,2.5l0.2,0.2h0.2l-0.6,1l0.2,0.2v0.2c-0.4,1.5-0.8,2.4-1.2,2.8c0,0.3-0.1,0.5-0.4,0.5l0.6,2.7l-1,0.5
		c-1-0.1-1.5-0.5-1.5-1.2c0-1.1,0.3-2.9,1-5.3c-2.6-0.2-3.9-0.9-3.9-2.2v-0.3c1-0.7,2.8-1.7,5.6-3
		C481.9,109.3,483.9,105.3,485.7,105.3"/>
	<path class="st0" d="M516.3,105l1.5,1.2v0.4c-0.3,0.3-0.7,1.2-1,2.6c-0.8,0.2-1.6,1.3-2.5,3.2c-2.2,3.7-3.2,6.7-3.2,8.9
		c0,1.9,1.7,2.8,5,2.8l16.5-2v0.2l0.3-0.2h0.2c1,0.1,1.5,0.3,1.5,0.6c-0.8,0.8-1.5,1.2-2,1.2v-0.2l-2.7,1l-0.3-0.2h-0.2l-3.8,0.8
		l-1-0.2c0,0.3-1.8,0.6-5.5,1l-0.3-0.2h-0.2l-1.8,0.4v-0.2l-0.8,0.2c-5.3-0.4-8-1.9-8-4.5l-0.2-1.6c0-2.4,2.4-7.5,7.3-15.4H516.3z"
		/>
	<polygon class="st0" points="226,165.7 228.4,165.7 228.4,151.5 226,151.5 226,149.4 233.4,149.4 233.4,151.5 231,151.5 231,165.6 
		237.5,165.6 237.5,162.7 239.9,162.7 239.9,167.8 226,167.8 	"/>
	<path class="st0" d="M251.3,159.8c-0.1-2.3-1.5-3.5-3.2-3.5c-2,0-3.6,1.3-3.9,3.5H251.3z M248.2,154.3c3.8,0,5.8,2.8,5.8,6.2
		c0,0.3-0.1,1-0.1,1h-9.8c0.2,2.9,2.3,4.5,4.6,4.5c2.3,0,4-1.5,4-1.5l1.1,1.8c0,0-2,1.8-5.2,1.8c-4.2,0-7.1-3-7.1-6.9
		C241.5,157,244.4,154.3,248.2,154.3"/>
	<path class="st0" d="M260.7,166.1c2.3,0,3.7-2.3,3.7-4.3v-0.5h-0.7c-1.2,0-5.4,0.1-5.4,2.6C258.3,165.1,259.2,166.1,260.7,166.1
		 M263.5,159.7h0.8v-0.5c0-2.1-1.2-2.8-2.9-2.8c-2.1,0-3.8,1.3-3.8,1.3l-1-1.8c0,0,2-1.6,5.1-1.6c3.4,0,5.2,1.7,5.2,5.1v5.9
		c0,0.4,0.2,0.6,0.6,0.6h1.4v1.9h-2.7c-1.2,0-1.7-0.6-1.7-1.4v-0.2c0-0.5,0.1-0.9,0.1-0.9h-0.1c0,0-1.2,2.8-4.4,2.8
		c-2.2,0-4.5-1.3-4.5-4C255.7,160,261.3,159.7,263.5,159.7"/>
	<path class="st0" d="M276.8,165.9c2,0,3.9-1.4,3.9-4.7c0-2.4-1.2-4.7-3.8-4.7c-2.1,0-3.9,1.7-3.9,4.7
		C273.1,164,274.6,165.9,276.8,165.9 M276.5,154.3c3,0,4.1,2.2,4.1,2.2h0.1c0,0-0.1-0.4-0.1-1v-4.2h-2.2v-1.9h4.8v15.8
		c0,0.4,0.2,0.6,0.6,0.6h1.3v2h-2.7c-1.2,0-1.7-0.6-1.7-1.4v-0.2c0-0.4,0.1-0.7,0.1-0.7h0c0,0-1.1,2.6-4.5,2.6
		c-3.6,0-5.9-2.8-5.9-6.9C270.4,157,272.9,154.3,276.5,154.3"/>
	<path class="st0" d="M289,149.4h2.7v2.6H289V149.4z M287,165.8h2.1v-9.3h-2.2v-1.9h4.8v11.2h2.1v1.9H287V165.8z"/>
	<path class="st0" d="M295.7,165.8h2.1v-8.7c0-0.4-0.2-0.6-0.6-0.6h-1.6v-1.9h3c1.2,0,1.7,0.5,1.7,1.5v0.7c0,0.4-0.1,0.8-0.1,0.8
		h0.1c0.3-0.7,1.8-3.2,5.2-3.2c3.1,0,4.5,1.7,4.5,5v6.5h2.1v1.9h-4.7v-7.9c0-1.8-0.4-3.3-2.5-3.3c-2.7,0-4.5,2.4-4.5,5v4.2h2.1v1.9
		h-6.8V165.8z"/>
	<path class="st0" d="M323.6,160.9c0-3.4-1.7-4.4-3.8-4.4c-2.3,0-3.6,1.7-3.6,4.3c0,2.7,1.5,4.6,3.9,4.6
		C321.9,165.4,323.6,164.3,323.6,160.9 M319.3,171.1c2.3,0,4.2-1,4.2-3.7v-1c0-0.4,0.1-0.8,0.1-0.8h-0.1c-0.8,1.3-2.1,2.1-4,2.1
		c-3.7,0-6-2.9-6-6.7c0-3.8,2.1-6.6,5.9-6.6c1.8,0,3.6,0.6,4.3,2.2h0.1c0,0-0.1-0.2-0.1-0.5c0-0.8,0.4-1.3,1.5-1.3h2.9v1.9h-1.5
		c-0.3,0-0.6,0.2-0.6,0.5v10.1c0,4.3-3.4,6-6.8,6c-1.6,0-3.3-0.4-4.6-1.1l0.8-1.9C315.6,170.2,317.3,171.1,319.3,171.1"/>
	<path class="st0" d="M336.2,163.5h2.3v0.9c0,1.1,1.6,1.6,3.1,1.6c1.5,0,2.7-0.6,2.7-1.7c0-1.3-1.5-1.7-3.3-2.4
		c-2-0.7-4.2-1.6-4.2-4c0-2.6,2.6-3.6,5-3.6c1.9,0,4.6,0.7,4.6,2.6v1.6h-2.3v-0.9c0-0.8-1.1-1.4-2.4-1.4c-1.3,0-2.4,0.5-2.4,1.6
		c0,1.2,1.5,1.8,3.1,2.3c2.1,0.7,4.4,1.5,4.4,4c0,2.5-2.3,3.9-5.4,3.9c-2.4,0-5.2-1.1-5.2-3.1V163.5z"/>
	<path class="st0" d="M351,149.4h2.7v2.6H351V149.4z M348.9,165.8h2.1v-9.3h-2.2v-1.9h4.8v11.2h2.1v1.9h-6.8V165.8z"/>
	<path class="st0" d="M357.6,165.8h2.1v-8.7c0-0.4-0.2-0.6-0.6-0.6h-1.6v-1.9h3c1.2,0,1.7,0.5,1.7,1.5v0.7c0,0.4-0.1,0.8-0.1,0.8
		h0.1c0.3-0.7,1.8-3.2,5.2-3.2c3.1,0,4.5,1.7,4.5,5v6.5h2.1v1.9h-4.7v-7.9c0-1.8-0.4-3.3-2.5-3.3c-2.7,0-4.5,2.4-4.5,5v4.2h2.1v1.9
		h-6.8V165.8z"/>
	<path class="st0" d="M382.5,154.3c2,0,5.2,0.7,5.2,3v1.6h-2.3V158c0-1-1.7-1.5-2.9-1.5c-2.7,0-4.6,1.9-4.6,4.7c0,3,2.1,4.7,4.7,4.7
		c2.3,0,3.8-1.3,4.3-1.7l1,1.8c-0.6,0.5-2.5,2-5.4,2c-3.9,0-7.2-2.6-7.2-6.9C375.4,157.2,378.5,154.3,382.5,154.3"/>
	<path class="st0" d="M399.7,159.8c-0.1-2.3-1.5-3.5-3.2-3.5c-2,0-3.6,1.3-3.9,3.5H399.7z M396.6,154.3c3.8,0,5.8,2.8,5.8,6.2
		c0,0.3-0.1,1-0.1,1h-9.8c0.2,2.9,2.3,4.5,4.6,4.5c2.3,0,4-1.5,4-1.5l1.1,1.8c0,0-2,1.8-5.2,1.8c-4.2,0-7.1-3-7.1-6.9
		C389.9,157,392.8,154.3,396.6,154.3"/>
	<path class="st0" d="M411,165.6h4.1v-12c0-0.6,0-1.1,0-1.1h-0.1c0,0-0.2,0.4-0.9,1l-1.7,1.7l-1.6-1.6l4.5-4.3h2.3v16.2h4.1v2.1H411
		V165.6z"/>
	<path class="st0" d="M429.9,159c2.1,0,3.8-1.3,3.8-2.8c0-2.2-1.8-4.9-4.2-4.9c-2.1,0-3.5,1.7-3.5,3.9
		C426,157.4,427.4,159,429.9,159 M429.4,149.1c4.1,0,7,3.4,7,8.6c0,4.8-2.6,10.4-8.5,10.4c-2.1,0-3.6-0.8-3.6-0.8l0.8-2.2
		c0,0,1.2,0.6,2.7,0.6c3.5,0,5.3-3.1,5.7-6.2h-0.1c-0.8,1-2.5,1.7-4.3,1.7c-3.5,0-5.9-2.6-5.9-5.9
		C423.3,151.6,425.9,149.1,429.4,149.1"/>
	<path class="st0" d="M447.4,157.8c0.3-0.3,1.6-1.8,1.6-3.6c0-1.8-1.4-2.9-3.4-2.9c-2.1,0-3.2,1.2-3.2,2.6
		C442.4,156,444.9,156.7,447.4,157.8 M445.6,165.8c2,0,3.8-1.3,3.8-3.1c0-2.1-2.5-2.7-5.4-4c-0.5,0.4-2.2,1.6-2.2,3.6
		C441.7,164.4,443.6,165.8,445.6,165.8 M442.1,157.6c-1.3-0.9-2.3-2-2.3-3.7c0-2.4,1.9-4.8,5.8-4.8c3.5,0,5.9,1.9,5.9,4.8
		c0,2.5-1.9,4.5-2.2,4.8c1.5,0.9,2.7,2.1,2.7,4c0,2.8-2.5,5.4-6.4,5.4c-3.7,0-6.5-2.3-6.5-5.5C439.1,159.6,441.6,158,442.1,157.6"/>
	<path class="st0" d="M465.5,158.6c0-4-0.9-7.2-3.9-7.2c-3.1,0-3.9,3.2-3.9,7.2c0,4.1,0.8,7.2,3.9,7.2
		C464.6,165.8,465.5,162.6,465.5,158.6 M454.9,158.6c0-5.3,1.6-9.5,6.6-9.5c5,0,6.6,4.2,6.6,9.5c0,5.3-1.6,9.5-6.6,9.5
		C456.5,168.1,454.9,163.9,454.9,158.6"/>
</g>
</svg>
