<?xml version="1.0" encoding="utf-8"?>
<!-- Generator: Adobe Illustrator 24.0.0, SVG Export Plug-In . SVG Version: 6.00 Build 0)  -->
<svg version="1.1" id="Слой_1" xmlns="http://www.w3.org/2000/svg" xmlns:xlink="http://www.w3.org/1999/xlink" x="0px" y="0px"
	 width="90px" height="80px" viewBox="0 0 90 80" style="enable-background:new 0 0 90 80;" xml:space="preserve">
<style type="text/css">
	.st0{fill:#515151;}
	.st1{clip-path:url(#SVGID_2_);}
	.st2{clip-path:url(#SVGID_4_);fill:url(#SVGID_5_);}
	.st3{clip-path:url(#SVGID_7_);}
	.st4{clip-path:url(#SVGID_9_);fill:url(#SVGID_10_);}
	.st5{clip-path:url(#SVGID_12_);}
	.st6{clip-path:url(#SVGID_14_);fill:url(#SVGID_15_);}
	.st7{clip-path:url(#SVGID_17_);}
	.st8{clip-path:url(#SVGID_19_);fill:url(#SVGID_20_);}
	.st9{fill:#F15A29;}
</style>
<g>
	<g>
		<polygon class="st0" points="1.7,62.6 3.1,62.6 3.1,54 1.7,54 1.7,52.4 10.3,52.4 10.3,55.4 8.5,55.4 8.5,54.1 5.2,54.1 5.2,57.4 
			9.1,57.4 9.1,59.1 5.2,59.1 5.2,62.4 8.7,62.4 8.7,61.1 10.6,61.1 10.6,64.2 1.7,64.2 		"/>
		<path class="st0" d="M17.5,57.9c1.1,0,1.9-0.7,1.9-1.9c0-0.8-0.3-1.4-0.9-1.6c-0.3-0.1-0.8-0.2-1.3-0.2h-1.6v3.8H17.5z M12,62.6
			h1.4V54H12v-1.7h5.1c0.9,0,1.6,0.1,2.2,0.2c1.3,0.4,2.2,1.5,2.2,3.2c0,1.6-0.9,2.8-2.2,3.3v0c0,0,0.3,0.2,0.6,0.6l1.3,2.5
			c0.2,0.3,0.4,0.4,0.8,0.4h0.4v1.6h-1.4c-1,0-1.3-0.2-1.6-0.9l-1.7-3c-0.2-0.5-0.5-0.6-1.1-0.6h-1.1v2.9h1.3v1.6H12V62.6z"/>
		<polygon class="st0" points="23.6,62.6 25,62.6 25,54 23.6,54 23.6,52.4 28.6,52.4 28.6,54 27.2,54 27.2,62.6 28.6,62.6 
			28.6,64.2 23.6,64.2 		"/>
		<path class="st0" d="M36,52.2c1.4,0,4.6,0.5,4.6,2.4v1.6h-2v-0.9c0-0.9-1.5-1.2-2.5-1.2c-2.3,0-3.9,1.6-3.9,4.1
			c0,2.7,1.7,4.4,4,4.4c0.7,0,2.5-0.2,2.5-1.2v-0.9h2v1.6c0,1.8-3,2.3-4.6,2.3c-3.5,0-6.1-2.7-6.1-6.2C30,54.7,32.6,52.2,36,52.2"/>
		<path class="st0" d="M42.2,62.6h1.4V54h-1.4v-1.7h4.7V54h-1.1v3.2h1.3l2.2-3.2h-1v-1.7h4.3V54h-1.1l-2.8,3.9v0
			c0,0,0.4,0.2,0.8,0.9l1.8,3.3c0.1,0.3,0.4,0.4,0.8,0.4h0.5v1.6H51c-1,0-1.3-0.2-1.6-0.9l-2-3.9C47.2,59.1,47,59,46.5,59h-0.7v3.6
			h1.3v1.6h-4.9V62.6z"/>
		<path class="st0" d="M55.7,60.4v0.9c0,0.8,1,1.2,2.1,1.2c1.2,0,2-0.5,2-1.5c0-1.2-1.3-1.6-2.7-2.1c-1.6-0.6-3.1-1.3-3.1-3.4
			c0-2.4,1.9-3.3,3.9-3.3c1.8,0,3.7,0.7,3.7,2.1v1.5h-2V55c0-0.6-0.9-0.9-1.7-0.9c-1,0-1.7,0.4-1.7,1.3c0,1.1,1.1,1.5,2.3,1.9
			c1.7,0.6,3.5,1.3,3.5,3.5c0,2.4-2,3.5-4.2,3.5c-1.9,0-4-0.9-4-2.7v-1.3H55.7z"/>
		<path class="st0" d="M69.3,62.5c2.1,0,3.8-1.9,3.8-4.3c0-2.3-1.7-4.1-3.8-4.1c-2.1,0-3.8,1.8-3.8,4.1
			C65.5,60.6,67.2,62.5,69.3,62.5 M69.3,52.2c3.5,0,6.1,2.6,6.1,6c0,3.5-2.6,6.2-6.1,6.2c-3.5,0-6-2.7-6-6.2
			C63.3,54.8,65.9,52.2,69.3,52.2"/>
		<path class="st0" d="M76.8,62.6h1.4V54h-1.4v-1.7h3.6l4.9,7.6c0.2,0.4,0.4,1,0.4,1h0c0,0-0.1-0.7-0.1-1.1V54h-1.4v-1.7h5V54h-1.4
			v10.2h-2.2l-4.9-7.6c-0.2-0.4-0.4-1-0.4-1h-0.1c0,0,0.1,0.7,0.1,1.1v5.8h1.4v1.6h-5V62.6z"/>
		<g>
			<defs>
				<path id="SVGID_1_" d="M24.6,39.8c-1.4,1.9,2.6,2.5,6.4,3c2.6,0.4,5,0.8,5.9,1.5c0,0,0,0,0.1,0h0c0,0,0.1,0,0.1,0
					c0-1.5-3.3-2.1-6.5-2.7c-2.7-0.5-5.2-0.9-5.8-1.9C24.7,39.8,24.7,39.8,24.6,39.8C24.6,39.8,24.6,39.8,24.6,39.8"/>
			</defs>
			<clipPath id="SVGID_2_">
				<use xlink:href="#SVGID_1_"  style="overflow:visible;"/>
			</clipPath>
			<g class="st1">
				<defs>
					<rect id="SVGID_3_" x="21.6" y="55.9" width="11.5" height="3.7"/>
				</defs>
				<clipPath id="SVGID_4_">
					<use xlink:href="#SVGID_3_"  style="overflow:visible;"/>
				</clipPath>
				
					<linearGradient id="SVGID_5_" gradientUnits="userSpaceOnUse" x1="-349.4431" y1="346.4982" x2="-349.1022" y2="346.4982" gradientTransform="matrix(162.6066 0 0 -162.6066 56820.1523 56400.6523)">
					<stop  offset="0" style="stop-color:#F4F4F4"/>
					<stop  offset="1" style="stop-color:#D9DAD9"/>
				</linearGradient>
				<rect x="21.6" y="55.9" class="st2" width="11.5" height="3.7"/>
			</g>
		</g>
		<g>
			<defs>
				<path id="SVGID_6_" d="M29.1,37.4C29.1,37.4,29,37.4,29.1,37.4c-2.6,1.9,1.2,2.7,5.3,3.4c3.9,0.8,8,1.6,7,3.4c0,0,0,0,0.1,0h0
					c0,0,0.1,0,0.1,0c4-2.6-0.9-3.6-5.7-4.6C32.7,39.1,29.8,38.5,29.1,37.4C29.2,37.4,29.2,37.4,29.1,37.4L29.1,37.4z"/>
			</defs>
			<clipPath id="SVGID_7_">
				<use xlink:href="#SVGID_6_"  style="overflow:visible;"/>
			</clipPath>
			<g class="st3">
				<defs>
					<rect id="SVGID_8_" x="24.3" y="53.9" width="15.7" height="5.7"/>
				</defs>
				<clipPath id="SVGID_9_">
					<use xlink:href="#SVGID_8_"  style="overflow:visible;"/>
				</clipPath>
				
					<linearGradient id="SVGID_10_" gradientUnits="userSpaceOnUse" x1="-349.4745" y1="346.3031" x2="-349.1336" y2="346.3031" gradientTransform="matrix(123.8919 0 0 -123.8919 43308.6133 42960.9336)">
					<stop  offset="0" style="stop-color:#F4F4F4"/>
					<stop  offset="1" style="stop-color:#D9DAD9"/>
				</linearGradient>
				<rect x="24.3" y="53.9" class="st4" width="15.7" height="5.7"/>
			</g>
		</g>
		<g>
			<defs>
				<path id="SVGID_11_" d="M36,34.9C36,34.9,35.9,34.9,36,34.9c-1.9,1-2.2,1.7-1,2.4c1.1,0.6,3.2,1.1,5.4,1.6
					c5,1.1,10.6,2.3,6.9,5.4c0,0,0,0,0.1,0h0c0,0,0.1,0,0.1,0c2.1-0.9,3.3-1.7,3.9-2.4c0.5-0.6,0.4-1.2-0.4-1.8
					c-1.3-1-4.5-1.7-7.6-2.4C39.9,36.9,36.5,36.1,36,34.9C36.1,34.9,36.1,34.9,36,34.9L36,34.9z"/>
			</defs>
			<clipPath id="SVGID_12_">
				<use xlink:href="#SVGID_11_"  style="overflow:visible;"/>
			</clipPath>
			<g class="st5">
				<defs>
					<rect id="SVGID_13_" x="30.4" y="51.9" width="14.9" height="7.8"/>
				</defs>
				<clipPath id="SVGID_14_">
					<use xlink:href="#SVGID_13_"  style="overflow:visible;"/>
				</clipPath>
				
					<linearGradient id="SVGID_15_" gradientUnits="userSpaceOnUse" x1="-349.5866" y1="346.1478" x2="-349.2457" y2="346.1478" gradientTransform="matrix(107.1802 0 0 -107.1802 37491.0742 37155.957)">
					<stop  offset="0" style="stop-color:#F4F4F4"/>
					<stop  offset="1" style="stop-color:#D9DAD9"/>
				</linearGradient>
				<rect x="30.4" y="51.9" class="st6" width="14.9" height="7.8"/>
			</g>
		</g>
		<g>
			<defs>
				<path id="SVGID_16_" d="M44,32.4C44,32.4,44,32.4,44,32.4c-2.5,1-3.1,1.9-2,2.6c1,0.7,3.4,1.2,5.8,1.8c6.1,1.4,13,3.1,6.6,7.4
					c0,0,0,0,0,0c0,0,0,0,0,0c0,0,0.1,0,0.1,0c3.2-1.1,5.3-2.1,6.3-3.1c0.5-0.5,0.8-0.9,0.8-1.3v0c0-0.3-0.2-0.6-0.5-0.9
					c-1.3-1.3-5.3-2.3-9.1-3.2C48.2,34.7,44.4,33.7,44,32.4C44.1,32.4,44.1,32.4,44,32.4L44,32.4z"/>
			</defs>
			<clipPath id="SVGID_17_">
				<use xlink:href="#SVGID_16_"  style="overflow:visible;"/>
			</clipPath>
			<g class="st7">
				<defs>
					<rect id="SVGID_18_" x="36.3" y="49.8" width="17.3" height="9.8"/>
				</defs>
				<clipPath id="SVGID_19_">
					<use xlink:href="#SVGID_18_"  style="overflow:visible;"/>
				</clipPath>
				
					<linearGradient id="SVGID_20_" gradientUnits="userSpaceOnUse" x1="-349.7503" y1="346.0281" x2="-349.4094" y2="346.0281" gradientTransform="matrix(99.1042 0 0 -99.1042 34694.1563 34347.5781)">
					<stop  offset="0" style="stop-color:#F4F4F4"/>
					<stop  offset="1" style="stop-color:#D9DAD9"/>
				</linearGradient>
				<rect x="36.3" y="49.8" class="st8" width="17.3" height="9.8"/>
			</g>
		</g>
		<path class="st9" d="M25.4,28C25.3,28,25.3,28,25.4,28c-1.4,6.7,2.3,8.9,5.9,11c2.4,1.4,4.7,2.7,5.5,5.3c0,0,0,0.1,0.1,0.1h0
			c0,0,0.1,0,0.1-0.1c0-5.5-3.1-7.6-6.1-9.6C28.4,33,26.1,31.5,25.4,28C25.5,28,25.4,28,25.4,28L25.4,28z"/>
		<path class="st9" d="M37,44.2c0-5.5-3.1-7.6-6.1-9.6c-2.5-1.6-4.9-3.2-5.5-6.6c0,0,0-0.1-0.1-0.1h0c0,0-0.1,0-0.1,0.1
			c-1.3,6.7,2.4,8.8,6,10.9c2.4,1.4,4.7,2.7,5.5,5.3C36.9,44.3,36.9,44.3,37,44.2L37,44.2C37,44.3,37,44.3,37,44.2"/>
		<path class="st9" d="M30.2,20C30.1,20,30.1,20,30.2,20c-2.5,6.8,1.2,9.5,5,12.4c3.7,2.7,7.5,5.6,6.5,12.4c0,0,0,0.1,0.1,0.1
			c0,0,0,0,0,0c0,0,0.1,0,0.1,0c3.7-9.4-0.9-13-5.3-16.5C33.6,26,30.8,23.8,30.2,20C30.2,20,30.2,20,30.2,20L30.2,20z"/>
		<path class="st9" d="M41.8,44.8c3.7-9.4-0.9-13-5.3-16.5c-2.9-2.3-5.7-4.5-6.3-8.2c0,0,0-0.1-0.1-0.1h0c0,0-0.1,0-0.1,0
			c-2.4,6.8,1.2,9.5,5.1,12.3c3.7,2.7,7.5,5.6,6.5,12.4C41.7,44.8,41.7,44.8,41.8,44.8C41.7,44.8,41.8,44.8,41.8,44.8
			C41.8,44.8,41.8,44.8,41.8,44.8"/>
		<path class="st9" d="M36.8,10.6c-1.7,3.4-2,6.1-0.8,8.5c1,2.2,3,3.8,5.1,5.6c4.7,3.9,9.9,8.3,6.5,19.5c0,0,0,0.1,0.1,0.1
			c0,0,0,0,0,0c0,0,0.1,0,0.1,0c1.9-3.2,3.1-6,3.6-8.6c0.4-2.3,0.3-4.4-0.3-6.3c-1.2-3.6-4.2-6.3-7.1-8.8c-3.4-3-6.6-5.7-6.9-9.9
			C37,10.6,36.9,10.6,36.8,10.6L36.8,10.6C36.9,10.6,36.8,10.6,36.8,10.6"/>
		<path class="st9" d="M36.8,10.6c-1.7,3.4-2,6.1-0.8,8.5c1,2.2,3,3.8,5.1,5.6c4.7,3.9,9.9,8.3,6.5,19.5c0,0,0,0.1,0.1,0.1
			c0,0,0,0,0,0h0c0,0,0.1,0,0.1,0c1.9-3.2,3.1-6,3.6-8.6c0.4-2.3,0.3-4.4-0.3-6.3c-1.2-3.6-4.2-6.3-7.1-8.8c-3.4-3-6.6-5.7-6.9-9.9
			C37,10.6,36.9,10.6,36.8,10.6L36.8,10.6C36.9,10.6,36.8,10.6,36.8,10.6"/>
		<path class="st9" d="M54.8,44.3c1.7-2.2,3-4.4,4-6.4c0.8-1.6,1.5-3.2,1.9-4.8c0.2-0.6,0.3-1.1,0.4-1.7c0.2-1.1,0.3-2.1,0.3-3.1
			c0-1.2-0.1-2.3-0.4-3.5c-0.2-0.7-0.4-1.3-0.7-1.9c-1.6-3.8-4.8-6.8-7.9-9.6c-3.8-3.5-7.4-6.9-7.7-11.4c0-0.1,0-0.1,0-0.2
			c0,0,0-0.1-0.1-0.1c0,0,0,0,0,0c0,0,0,0-0.1,0c0,0,0,0,0,0c-2,3.2-2.7,5.9-2.1,8.3c0.1,0.4,0.2,0.8,0.3,1.1c1,2.4,3.2,4.4,5.5,6.5
			c1.8,1.6,3.7,3.3,5.3,5.4c1.2,1.6,2.2,3.5,2.8,5.7c1,3.8,0.7,8.7-1.8,15.5c0,0,0,0,0,0c0,0,0,0,0,0.1c0,0,0,0,0,0
			C54.7,44.3,54.7,44.3,54.8,44.3C54.7,44.3,54.8,44.3,54.8,44.3"/>
	</g>
	<g>
		<path class="st9" d="M29.1,70.7c0.2,0,0.4,0,0.7,0c0.3,0,0.6,0.1,0.9,0.2c0.3,0.1,0.6,0.2,0.9,0.3c0.3,0.1,0.6,0.3,0.8,0.4
			c0.2,0.2,0.4,0.4,0.6,0.6c0.1,0.2,0.2,0.5,0.2,0.8c0,0.4-0.1,0.7-0.4,1s-0.6,0.5-1,0.7c-0.4,0.2-0.8,0.4-1.3,0.5
			c-0.5,0.1-1,0.2-1.5,0.3c-0.5,0.1-1,0.1-1.4,0.2s-0.8,0-1.2,0c-0.1,0.2-0.2,0.5-0.3,0.8c-0.1,0.3-0.2,0.6-0.4,0.9
			c-0.1,0.3-0.2,0.5-0.4,0.7c-0.1,0.2-0.2,0.3-0.3,0.3c0,0-0.1-0.1-0.1-0.2c0-0.1,0-0.2,0-0.4c0-0.2,0-0.4,0-0.6
			c0-0.2,0.1-0.4,0.1-0.6s0.1-0.4,0.1-0.6s0.1-0.4,0.1-0.5c-0.2,0-0.4-0.1-0.5-0.1s-0.2-0.1-0.2-0.1c0-0.1,0.1-0.1,0.2-0.2
			c0.2-0.1,0.4-0.1,0.6-0.2c0-0.2,0.1-0.4,0.2-0.6c0.1-0.2,0.2-0.5,0.4-0.8c0.1-0.3,0.3-0.6,0.5-0.9s0.3-0.6,0.5-0.8
			c0.2-0.3,0.3-0.5,0.5-0.7c0.1-0.2,0.3-0.4,0.4-0.5c0,0,0.1,0,0.1,0s0,0,0.1,0c0.1,0,0.2,0,0.3,0S28.8,70.7,29.1,70.7z M26.8,74.9
			c0.2,0,0.4,0,0.8-0.1c0.3,0,0.7-0.1,1.1-0.2c0.4-0.1,0.8-0.2,1.2-0.3s0.8-0.2,1.1-0.4c0.3-0.1,0.6-0.3,0.8-0.5
			c0.2-0.2,0.3-0.4,0.3-0.6c0-0.2-0.1-0.4-0.4-0.5c-0.2-0.2-0.5-0.3-0.9-0.4c-0.4-0.1-0.7-0.2-1.2-0.2c-0.4-0.1-0.8-0.1-1.1-0.1
			c-0.1,0.1-0.3,0.3-0.4,0.6c-0.2,0.3-0.3,0.5-0.5,0.8c-0.2,0.3-0.3,0.6-0.5,0.9C27,74.4,26.8,74.7,26.8,74.9z"/>
		<path class="st9" d="M40,77.2c0.2,0,0.4,0,0.6,0.1c0.2,0,0.5,0.1,0.8,0.1c0.3,0.1,0.5,0.1,0.8,0.2c0.3,0.1,0.5,0.2,0.7,0.2
			c0.2,0.1,0.4,0.2,0.5,0.3c0.1,0.1,0.2,0.2,0.2,0.3c0,0,0,0-0.1,0c0,0-0.2,0-0.4-0.1s-0.6-0.1-0.9-0.1c-0.3,0-0.7-0.1-1-0.1
			c-0.4,0-0.7,0-1.1,0c-0.4,0-0.8,0.1-1.2,0.1c-0.4,0.1-0.9,0.1-1.3,0.3c-0.2,0-0.3,0-0.5-0.1c-0.1-0.1-0.2-0.2-0.3-0.4
			c-0.1-0.2-0.1-0.3-0.1-0.5c0-0.2,0-0.4,0-0.5c0-0.5,0.1-1,0.2-1.6s0.3-1.1,0.5-1.6c0.2-0.5,0.5-1,0.8-1.5c0.3-0.5,0.7-0.9,1.1-1.2
			l0.1-0.2c0.1-0.1,0.3-0.2,0.6-0.2s0.6-0.1,1-0.1c0.3,0,0.6,0,0.8,0c0.2,0,0.5,0.1,0.6,0.1s0.3,0.1,0.4,0.1s0.2,0.1,0.2,0.1
			c0.1,0.1,0.2,0.2,0.2,0.3c0.1,0.1,0.1,0.2,0,0.3c0,0.1-0.1,0.2-0.2,0.3c-0.1,0.1-0.2,0.1-0.4,0.2c-0.1,0-0.2-0.1-0.4-0.1
			c-0.2,0-0.5-0.1-0.7-0.1c-0.3,0-0.5,0-0.8,0s-0.5,0-0.6,0.1c-0.4,0.4-0.8,0.8-1.1,1.3c-0.3,0.5-0.6,1-0.8,1.5c0.2,0,0.5,0,0.7-0.1
			c0.3,0,0.6,0,0.9,0c0.3,0,0.6,0,0.8,0.1c0.3,0.1,0.5,0.1,0.7,0.2s0.4,0.2,0.5,0.3C42,75,42,75.1,42,75.1c0,0.1-0.1,0.1-0.2,0.2
			c-0.1,0-0.3,0.1-0.5,0.1c-0.2,0-0.4,0-0.6,0c-0.2,0-0.4,0-0.7,0c-0.5,0-1,0-1.3,0.1c-0.4,0-0.7,0.1-0.9,0.1c0,0.3-0.1,0.5-0.1,0.7
			c0,0.2,0,0.4,0,0.6c0,0.1,0,0.1,0,0.2s0,0.1,0,0.2c0.2,0,0.4-0.1,0.5-0.1c0.2,0,0.3,0,0.5-0.1c0.2,0,0.4,0,0.5,0
			C39.5,77.2,39.8,77.2,40,77.2z"/>
		<path class="st9" d="M54,77.8c0.2,0.1,0.3,0.2,0.3,0.2c0.1,0.1,0.1,0.1,0.1,0.2c0,0.1-0.1,0.1-0.2,0.1c-0.1,0-0.3,0-0.5,0
			c-0.3,0-0.5,0-0.9-0.1s-0.6-0.2-1-0.3c-0.3-0.1-0.7-0.2-1-0.4c-0.3-0.2-0.7-0.3-1-0.5s-0.6-0.4-0.8-0.6c-0.3-0.2-0.5-0.4-0.6-0.6
			c-0.1,0.1-0.1,0.2-0.2,0.3c-0.1,0.1-0.1,0.3-0.2,0.4c-0.1,0.1-0.1,0.3-0.2,0.5c-0.1,0.2-0.1,0.3-0.2,0.5c-0.1,0.2-0.2,0.4-0.2,0.4
			c-0.1,0.1-0.1,0.1-0.2,0.1c0,0-0.1,0-0.1-0.1s0-0.2,0-0.3c0-0.5,0.1-1,0.2-1.6s0.3-1.1,0.6-1.6s0.5-1.1,0.8-1.6s0.5-0.9,0.8-1.3
			l-0.6-0.1c-0.1-0.1-0.1-0.2-0.2-0.3c0-0.1,0-0.2,0-0.3c0-0.1,0.1-0.2,0.1-0.3c0.1-0.1,0.2-0.2,0.3-0.2c0.1,0,0.1,0,0.2,0
			s0.1,0,0.2,0c0.1,0,0.2,0,0.3,0.1s0.3,0,0.4,0.1c0.1-0.1,0.2-0.1,0.4-0.1c0.1,0,0.2,0.1,0.3,0.3c0.4,0.1,0.8,0.2,1.2,0.3
			s0.8,0.3,1.3,0.6c0.1,0.1,0.2,0.1,0.3,0.2c0.1,0.1,0.2,0.2,0.3,0.3c0.1,0.1,0.2,0.3,0.2,0.4c0.1,0.1,0.1,0.3,0.1,0.5
			c0,0.3-0.1,0.6-0.2,0.8c-0.2,0.2-0.4,0.4-0.6,0.6c-0.3,0.2-0.6,0.3-0.9,0.4s-0.7,0.2-1.1,0.2c-0.4,0.1-0.7,0.1-1.1,0.1
			c-0.4,0-0.7,0-1.1,0c0.2,0.2,0.4,0.3,0.6,0.5s0.5,0.3,0.8,0.5c0.3,0.2,0.6,0.3,0.9,0.4s0.6,0.3,0.9,0.4c0.3,0.1,0.6,0.2,0.8,0.3
			S53.8,77.8,54,77.8z M49,74.9c0.1,0,0.3-0.1,0.6-0.1c0.3-0.1,0.6-0.1,0.9-0.2c0.3-0.1,0.6-0.2,1-0.3c0.3-0.1,0.6-0.2,0.9-0.3
			s0.5-0.2,0.7-0.3c0.2-0.1,0.3-0.2,0.3-0.3c0-0.1,0-0.2-0.1-0.3c-0.1-0.1-0.2-0.2-0.4-0.3c-0.1-0.1-0.3-0.2-0.5-0.3
			c-0.2-0.1-0.4-0.2-0.6-0.2s-0.4-0.1-0.6-0.2C51,72,50.8,72,50.7,71.9c-0.1,0.2-0.3,0.4-0.4,0.6s-0.3,0.5-0.5,0.8
			c-0.2,0.3-0.3,0.5-0.4,0.8C49.2,74.4,49.1,74.7,49,74.9z"/>
		<path class="st9" d="M66.4,73.1c0,0.3,0,0.6-0.1,1c-0.1,0.4-0.2,0.7-0.3,1.1c-0.1,0.4-0.3,0.8-0.4,1.1s-0.3,0.7-0.4,0.9
			c-0.2,0.4-0.3,0.6-0.5,0.8c-0.1,0.2-0.2,0.3-0.3,0.3c0,0,0,0,0-0.1s0-0.2,0-0.3c0-0.1,0-0.2,0.1-0.4c0-0.1,0.1-0.2,0.1-0.3
			c0.1-0.3,0.2-0.6,0.3-1s0.2-0.7,0.3-1s0.1-0.7,0.2-1c0-0.3,0.1-0.6,0.1-0.9c0-0.2,0-0.4,0-0.5c0-0.1-0.1-0.3-0.1-0.3
			c0-0.1-0.1-0.2-0.1-0.2s-0.1-0.1-0.1-0.1c-0.1,0-0.2,0.1-0.4,0.3s-0.4,0.3-0.5,0.5c-0.2,0.2-0.4,0.4-0.5,0.6s-0.3,0.4-0.4,0.5
			c-0.1,0.1-0.1,0.2-0.2,0.3c-0.1,0.1-0.2,0.2-0.3,0.3s-0.2,0.2-0.3,0.3C62.2,75,62.1,75,61.9,75c-0.2,0-0.3-0.1-0.4-0.2
			s-0.1-0.2-0.1-0.4c0-0.2,0-0.3,0.1-0.6c0-0.2,0.1-0.5,0.1-0.7c0-0.2,0.1-0.5,0.1-0.7c0-0.2,0.1-0.5,0.1-0.7
			c-0.3,0.2-0.6,0.5-0.8,0.9s-0.5,0.7-0.7,1.1c-0.2,0.4-0.4,0.8-0.6,1.2c-0.2,0.4-0.3,0.8-0.5,1.1c-0.1,0.4-0.2,0.7-0.3,1
			c-0.1,0.3-0.1,0.6-0.2,0.8c0,0.2-0.1,0.4-0.1,0.5c0,0.1,0,0.2,0,0.2c-0.1,0.1-0.1,0.3-0.2,0.4s-0.2,0.2-0.3,0.2
			c-0.1,0-0.2,0-0.3-0.1c-0.1-0.1-0.2-0.3-0.2-0.5c0-0.3,0.1-0.6,0.2-1.1c0.1-0.5,0.3-1,0.5-1.7c0.1-0.4,0.3-0.8,0.5-1.3
			c0.2-0.4,0.4-0.8,0.6-1.2c0.2-0.4,0.5-0.8,0.7-1.1c0.2-0.4,0.5-0.7,0.7-0.9c0.2-0.3,0.5-0.5,0.7-0.6c0.2-0.2,0.5-0.2,0.7-0.2
			c0.2,0,0.3,0,0.4,0.1s0.2,0.2,0.2,0.3c0,0.1,0.1,0.3,0.1,0.4s0,0.2,0,0.3c0,0.1,0,0.2,0,0.4c0,0.2-0.1,0.4-0.1,0.6
			c0.1-0.1,0.3-0.3,0.5-0.5c0.2-0.2,0.3-0.3,0.5-0.5c0.2-0.1,0.4-0.3,0.6-0.4s0.4-0.1,0.7-0.1c0.3,0,0.5,0.1,0.7,0.2
			c0.2,0.1,0.3,0.3,0.4,0.5c0.1,0.2,0.2,0.4,0.2,0.6C66.3,72.7,66.4,72.9,66.4,73.1z"/>
	</g>
</g>
</svg>
