<?xml version="1.0" encoding="utf-8"?>
<!-- Generator: Adobe Illustrator 24.0.0, SVG Export Plug-In . SVG Version: 6.00 Build 0)  -->
<svg version="1.1" id="Слой_1" xmlns="http://www.w3.org/2000/svg" xmlns:xlink="http://www.w3.org/1999/xlink" x="0px" y="0px"
	 width="89px" height="89px" viewBox="0 0 89 89" style="enable-background:new 0 0 89 89;" xml:space="preserve">
<style type="text/css">
	.st0{fill:#F15A29;}
	.st1{fill:#F5BAA7;}
</style>
<g>
	<g>
		<path class="st0" d="M36.8,23.8c0-3.9,3.2-8,7.4-8.3c4.7-0.4,9,3.4,8.7,8.1c-0.4,7.4-1.2,14.9-2,22.3c-0.3,3-2.7,4.6-6,4.6
			c-3,0-5.9-2-6.2-4.8C38.1,38.8,37.6,32,36.8,23.8z M42.4,45.9c2.5,1.1,4.9,1.7,5.3-1.1c1-6.8,1.5-13.7,2-20.6
			c0.2-3.2-1.8-4.9-4.9-4.9c-2.8,0.1-4.2,1.5-4,4.9C41.2,31.4,41.8,38.6,42.4,45.9z"/>
		<path class="st0" d="M53,63.5c0,4.4-3.6,8-8,8.2c-3.5,0.2-8.4-4.6-8.2-8.1c0.2-4.4,3.7-8.1,8.1-8.1C49.5,55.5,53,58.9,53,63.5z
			 M44.8,67.8c2.9,0.1,4.9-1.7,4.9-4.2c0-2-2.7-4.7-4.6-4.8c-2.4-0.1-4.3,1.9-4.3,4.5C40.6,66.2,42,67.7,44.8,67.8z"/>
	</g>
	<path class="st1" d="M44.2,87.7C21.3,88.4,0.2,69.4,0.8,42.8C1.3,20.9,19.3-0.1,46.2,0.7C69.1,1.4,88,19.8,88.1,44.2
		C88.3,68.2,68.9,88.5,44.2,87.7z M44.7,84.3c22.5,0.3,40.2-18.7,40-40C84.5,21.8,67.1,4.2,44.8,4.2C21,4.3,4.3,21.9,4.3,44.4
		C4.2,65.6,20.7,84.3,44.7,84.3z"/>
</g>
</svg>
