<?xml version="1.0" encoding="utf-8"?>
<!-- Generator: Adobe Illustrator 24.0.0, SVG Export Plug-In . SVG Version: 6.00 Build 0)  -->
<svg version="1.1" id="Слой_1" xmlns="http://www.w3.org/2000/svg" xmlns:xlink="http://www.w3.org/1999/xlink" x="0px" y="0px"
	 width="111px" height="111px" viewBox="0 0 111 111" style="enable-background:new 0 0 111 111;" xml:space="preserve">
<style type="text/css">
	.st0{fill:#F15A29;}
	.st1{fill:#FFFFFF;stroke:#FFFFFF;stroke-miterlimit:10;}
</style>
<circle class="st0" cx="55.3" cy="55.9" r="54.5"/>
<g>
	<path class="st1" d="M45.9,72.3c-1.6-0.3-1.6-0.3-1.7-2.1c-0.2,0-0.4,0-0.5,0c-5.7,0-11.4,0-17.1,0c-0.3,0-0.7,0-1-0.1
		c-0.5-0.2-0.6-0.6-0.7-1.1c0-0.1,0-0.2,0-0.3c0-11.9,0-23.8,0-35.8c0-0.9,0.5-1.6,1.6-1.6c5.8,0,11.5,0,17.3,0c0.2,0,0.3,0,0.6,0
		c0-0.3,0-0.5,0-0.8c0-0.8,0.5-1.3,1.3-1.4c0.7,0,1.5,0,2.2,0c5.5,0,11,0,16.5,0c1.1,0,1.7,0.5,1.6,1.6c0,0.2,0,0.3,0,0.5
		c0.2,0,0.4,0,0.5,0c5.8,0,11.6,0,17.4,0c0.6,0,1,0.2,1.3,0.7c0,0.1,0.1,0.2,0.1,0.2c0,0.8,0,1.7,0,2.5c0,0.4,0.1,0.8,0.1,1.2
		c0,7.2,0,14.5,0,21.7c0,0.7,0,1.5,0,2.2c0,2.9,0,5.9,0,8.8c0,0.5-0.1,1-0.6,1.3c-0.2,0.1-0.5,0.2-0.8,0.2c-3.5,0-15.7,0-17.5,0
		c-0.1,0-0.3,0-0.4,0c-0.1,0.6-0.1,1.1-0.3,1.6c-0.2,0.6-0.9,0.5-1.5,0.5c0.3,0.7,0.6,1.4,0.8,2.1c0.2,0.5,0.4,1.1,0.6,1.7
		c0.2,0.6,0.4,1.1,0.6,1.7c0.3,0.9,0.6,1.7,1,2.6c0.2,0.5,0.4,1,0.6,1.5c0.3,0.9,0.6,1.7,0.9,2.6c0.2,0.5,0.4,1,0.6,1.5
		c0.3,0.8,0.6,1.5,0.9,2.3c0.1,0.3-0.2,0.9-0.5,1.1c-0.6,0.3-1.1,0.3-1.4-0.1c-0.2-0.2-0.3-0.5-0.4-0.8c-0.4-1.1-0.7-2.1-1.1-3.2
		c-0.4-1-0.8-2-1.2-3c-0.3-0.8-0.6-1.7-0.9-2.5c-0.3-0.8-0.6-1.5-0.9-2.3c-0.2-0.6-0.4-1.2-0.6-1.8c-0.2-0.5-0.4-1.1-0.6-1.6
		c-0.2-0.5-0.4-1-0.6-1.5c0-0.1-0.2-0.2-0.3-0.2c-1.8,0-3.6,0-5.4,0c0,3.5,0,7,0,10.5c0,1.1,0,2.1,0,3.2c0,0.9-0.1,1.8-0.1,2.7
		c0,0.4-0.3,0.7-0.6,0.8c-0.4,0.2-0.8,0.1-1.2-0.2c-0.3-0.3-0.4-0.7-0.4-1c0-4.6,0-9.1,0-13.7c0-0.7,0-1.4,0-2.2c-1.9,0-3.7,0-5.6,0
		c-0.3,0.9-0.6,1.8-1,2.7c-0.3,0.8-0.7,1.6-1,2.5c-0.2,0.5-0.4,1-0.6,1.6c-0.3,0.9-0.7,1.7-1,2.6c-0.2,0.5-0.4,1-0.6,1.6
		c-0.3,0.9-0.7,1.7-1,2.6c-0.2,0.5-0.4,1.1-0.6,1.6c-0.2,0.6-0.5,1.2-0.8,1.7c-0.3,0.5-0.9,0.5-1.3,0.3C40,89,39.8,88.6,40.1,88
		c0.4-1,0.7-2,1.1-3c0.3-0.8,0.7-1.6,1-2.4c0.2-0.5,0.4-1.1,0.5-1.7c0.2-0.6,0.4-1.1,0.6-1.7c0.3-0.8,0.6-1.7,0.9-2.5
		c0.2-0.6,0.5-1.1,0.7-1.7C45.3,74.1,45.6,73.2,45.9,72.3z M83,67.8c0-11.5,0-22.9,0-34.3c-5.7,0-11.4,0-17.1,0c0,0.3,0,0.6,0,0.9
		c0,0.8-0.5,1.3-1.4,1.3c-6.3,0-12.6,0-18.9,0c-0.9,0-1.4-0.6-1.4-1.4c0-0.3,0-0.6,0-0.9c-0.2,0-0.4,0-0.6,0c-5.2,0-10.4,0-15.5,0
		c-0.9,0-0.9,0-0.9,0.9c0,0.8,0,1.6,0,2.4c0,7.4,0,28.8,0,30.5c0,0.2,0,0.3,0,0.5c5.7,0,11.4,0,17.1,0c0-0.3,0-0.6,0-0.8
		c0-0.8,0.6-1.2,1.2-1.2c6.5,0,12.9,0,19.4,0c0.6,0,0.9,0.3,1,0.9c0.1,0.4,0.1,0.8,0.1,1.2C71.6,67.8,77.3,67.8,83,67.8z M46.6,33.5
		c5.7,0,11.4,0,17,0c0-0.7,0-1.4,0-2c-5.7,0-11.3,0-17,0C46.6,32.1,46.6,32.8,46.6,33.5z M46.6,70c5.7,0,11.4,0,17,0
		c0-0.7,0-1.3,0-1.9c-5.7,0-11.3,0-17,0C46.6,68.7,46.6,69.3,46.6,70z"/>
	<path class="st1" d="M68.5,44.3c-1.2,0-2.4,0-3.5,0c-0.7,0-1.2-0.3-1.3-0.8c-0.2-0.7,0.3-1.5,1.2-1.5c2.1,0,4.2,0,6.3,0
		c0.8,0,1.2,0.5,1.2,1.3c0,2,0,3.9,0,5.9c0,0.5-0.1,0.9-0.5,1.3c-0.4,0.3-0.8,0.3-1.1,0.2c-0.5-0.2-0.7-0.7-0.7-1.2c0-1,0-2.1,0-3.1
		c0-0.1,0-0.2,0-0.4c-0.2,0.2-0.3,0.3-0.4,0.4c-2.7,2.7-5.5,5.5-8.3,8.2c-0.2,0.2-0.5,0.4-0.8,0.5c-0.2,0.1-0.9-0.2-1.1-0.6
		c-0.6-0.9-1.2-1.9-1.8-2.8c-0.5-0.8-1.1-1.6-1.7-2.5c-1.3,1.3-2.7,2.7-4,4c-1.2,1.2-2.4,2.5-3.7,3.7c-0.4,0.4-1,0.5-1.7-0.1
		c-1.1-1.1-2.3-2.2-3.5-3.4c-0.1,0.1-0.2,0.3-0.3,0.4c-2.4,2.4-4.8,4.9-7.3,7.3c-0.2,0.2-0.5,0.4-0.8,0.5c-0.2,0.1-1-0.3-1.2-0.6
		c-0.3-0.6,0-1.1,0.4-1.5c2.8-2.8,5.5-5.5,8.3-8.3c0.2-0.2,0.5-0.5,0.8-0.5c0.3,0,0.7,0.1,0.9,0.3c1.1,1.1,2.3,2.2,3.4,3.4
		c0.1,0.1,0.3,0,0.4,0c0.5-0.4,0.9-0.9,1.4-1.4c2-2,4.1-4.1,6.1-6.1c0.3-0.3,0.6-0.5,1-0.5c0.4,0,0.7,0.2,0.9,0.5
		c1.1,1.7,2.2,3.3,3.3,5c0.1,0.2,0.2,0.3,0.4,0.1C63.4,49.4,65.9,46.9,68.5,44.3z"/>
</g>
</svg>
