<?xml version="1.0" encoding="utf-8"?>
<!-- Generator: Adobe Illustrator 24.0.0, SVG Export Plug-In . SVG Version: 6.00 Build 0)  -->
<svg version="1.1" id="Слой_1" xmlns="http://www.w3.org/2000/svg" xmlns:xlink="http://www.w3.org/1999/xlink" x="0px" y="0px"
	 width="111px" height="111px" viewBox="0 0 111 111" style="enable-background:new 0 0 111 111;" xml:space="preserve">
<style type="text/css">
	.st0{fill:#515151;}
	.st1{fill:#FFFFFF;stroke:#FFFFFF;stroke-width:1.2;stroke-miterlimit:10;}
</style>
<circle class="st0" cx="55.3" cy="55.9" r="54.5"/>
<g>
	<path class="st1" d="M28.7,77.9c17.6,0,35.1,0,52.9,0c0.6-3.4,0.2-6.8-1.6-9.8c-3-5-7.3-8.1-13.4-8.3c-0.6,0-1.2-0.9-1.8-1.3
		c0.7-0.4,1.4-1.2,2-1.1c5.3,0.5,10,2.6,13.4,6.8c3.4,4.2,4.5,9.1,3.9,14.5c-0.1,0.6-0.9,1.2-1.5,1.6c-0.3,0.2-1,0.1-1.5,0.1
		c-17.4,0-34.8,0-52.2,0c-2.9,0-2.9-0.1-3-3c-0.3-7.1,2.3-12.7,8.1-16.8c2.8-2,6.1-3.1,9.6-3.2c0.6,0,1.2,0.8,1.7,1.2
		c-0.5,0.4-1.1,1.3-1.6,1.3C35.1,59.8,27.1,67.9,28.7,77.9z"/>
	<path class="st1" d="M71.3,36.7C71.8,45.8,63.6,53,55,52.9c-8.3-0.1-16.6-6.9-16.1-17.2c0.4-7.7,7-15.3,16.3-15.3
		C64,20.4,71.8,28.3,71.3,36.7z M54.8,22.7C47.1,23,41,29.4,41.2,36.9c0.2,8.3,7.2,14.2,14.5,13.8c7.7-0.4,13.5-6.4,13.4-14.2
		C68.9,28.1,62.3,22.7,54.8,22.7z"/>
</g>
</svg>
