<?xml version="1.0" encoding="utf-8"?>
<!-- Generator: Adobe Illustrator 24.0.0, SVG Export Plug-In . SVG Version: 6.00 Build 0)  -->
<svg version="1.1" id="Слой_1" xmlns="http://www.w3.org/2000/svg" xmlns:xlink="http://www.w3.org/1999/xlink" x="0px" y="0px"
	 width="111px" height="111px" viewBox="0 0 111 111" style="enable-background:new 0 0 111 111;" xml:space="preserve">
<style type="text/css">
	.st0{fill:#F15A29;}
	.st1{fill:#FFFFFF;stroke:#FFFFFF;stroke-width:0.5;stroke-miterlimit:10;}
</style>
<g>
	<circle class="st0" cx="55.3" cy="55.9" r="54.5"/>
	<g>
		<path class="st1" d="M66.3,84.8c-0.3,0-0.5,0.1-0.7,0.1c-10.7,0-21.5,0-32.2,0c-2.7,0-4.5-1.4-5.6-3.6c-1.2-2.4-0.5-5.5,1.3-7.4
			c0.4-0.4,0.7-0.7,1.1-1c1.2-1,2-2,1.2-3.9c-1.3-3,0-5.7,2-8.1c3-3.5,6-7,9-10.6c2.6-3.1,5.2-6.2,7.7-9.3c0.3-0.3,0.6-0.8,0.5-1.2
			c-0.6-2.9,0.6-5,2.7-7c2.5-2.3,4.8-4.8,7.3-7.1c3.7-3.5,8.5-3.6,12.1-0.1c2.4,2.2,4.6,4.5,6.9,6.9c3.4,3.6,3.3,8.6-0.4,12.4
			c-2.6,2.7-5.3,5.2-8,7.8c-1.6,1.6-3.5,2.2-5.8,1.8c-0.6-0.1-1.5,0.4-2,0.8c-2.9,2.3-5.7,4.6-8.5,7c-3.7,3.1-7.5,6.2-11.2,9.4
			c-2.7,2.3-5.7,3-9,1.3c-0.3-0.1-0.8-0.1-1,0c-1.1,1.1-2.4,2.2-3.2,3.6c-1.5,2.4-0.2,5.1,2.6,5.6c0.7,0.1,1.4,0.1,2.1,0.1
			c9.7,0,19.3,0,29,0C66.5,82.4,66.5,82.4,66.3,84.8z M52.4,42.6c-1.7,2-3,3.5-4.3,5.1c-4.5,5.4-9,10.8-13.4,16.2
			c-1.5,1.8-1.3,4.4,0.3,6.1c1.6,1.6,4.4,1.9,6.1,0.5c6.8-5.6,13.5-11.3,20.3-16.9c0.8-0.7,0.4-1.1-0.1-1.6
			c-2.2-2.2-4.5-4.4-6.7-6.7C53.8,44.5,53.2,43.7,52.4,42.6z M72.2,47.7c1.8-1.7,3.5-3.5,5.4-5c2.3-1.8,2.3-5.9,0.2-8
			c-2.4-2.4-4.7-4.8-7.1-7.1c-2-1.9-5.1-2.3-7.2-0.5c-2.1,1.8-4,4-5.9,6C62.4,37.9,67.4,42.8,72.2,47.7z M66.8,52.5
			c1.1-0.7,2.2-1.4,3.2-2.2c0.2-0.1,0-1-0.3-1.3c-4.5-4.5-9-9-13.5-13.5c-0.3-0.3-1.1-0.4-1.4-0.2c-2,1.4-2.2,4.1-0.5,5.9
			c3.2,3.2,6.4,6.5,9.7,9.7C64.7,51.6,65.7,51.9,66.8,52.5z"/>
	</g>
</g>
</svg>
