<?xml version="1.0" encoding="utf-8"?>
<!-- Generator: Adobe Illustrator 24.0.0, SVG Export Plug-In . SVG Version: 6.00 Build 0)  -->
<svg version="1.1" id="Слой_1" xmlns="http://www.w3.org/2000/svg" xmlns:xlink="http://www.w3.org/1999/xlink" x="0px" y="0px"
	 width="111px" height="111px" viewBox="0 0 111 111" style="enable-background:new 0 0 111 111;" xml:space="preserve">
<style type="text/css">
	.st0{fill:#515151;}
	.st1{fill:#FFFFFF;stroke:#FFFFFF;stroke-width:0.5;stroke-miterlimit:10;}
</style>
<circle class="st0" cx="55.3" cy="55.9" r="54.5"/>
<g>
	<path class="st1" d="M58,44.4C55,36.3,56.8,30,62.9,27c8.8-4.3,17.5,0.6,18.9,10.5c0.6,4.6-4.4,10.6-8.8,12.2
		c-4.5,1.6-8.1,0-11.9-1.7c-0.8-0.3-1.9-1.1-2.3-0.8c-5.4,3.3-14.9,9.6-15.6,9.9s1,1.8,1.4,4.7c0.4,2.9-1.3,4.9,0.4,5.9
		s9.3,3.6,12.9,4.8c0.4-0.5,1.1-1.1,1.5-1.9c3-5.4,10.5-6.2,14.5-1.4c2.8,3.4,2.3,8.6-1,11.7c-4,3.7-8.7,2.9-11.7,0.1
		c-1-1.4-2-3-3.2-4.2c-1.2-1.2-2.7-2.2-4.2-2.9c-1.5-0.7-7.5-2.9-9.7-3.7c-2.3-0.8-3.7,3.6-8.4,4.2s-9.1-1.8-11.1-5.1
		c-2.5-4.2-2.1-9.2,0.9-12.5c3.2-3.6,8.6-5.4,13.5-2.6c0.7,0.4,2,0.5,2.7,0.1C47.1,51.2,52.5,47.8,58,44.4z M78.6,37.7
		c0-5-4.5-9.6-9.4-9.6c-5.3-0.1-10.2,4.6-9.9,9.9c0.2,5.2,5,9.7,9.9,9.7C73.5,47.6,79.3,42.4,78.6,37.7z M26.4,63.4
		c-0.1,4.7,3.3,8.1,7.8,8.3c3.5,0.1,7.5-4.9,7.7-8.1c0.2-3.9-3.5-7.4-7.4-7.6C29.9,55.9,26.4,59,26.4,63.4z M61.6,74.5
		c-0.1,3.6,1.9,5.8,5.3,5.9c3.4,0.1,6.2-2.5,6.2-5.7c0-2.6-1-5.3-5.3-6C63.3,68.7,61.6,71.2,61.6,74.5z"/>
</g>
</svg>
