<?xml version="1.0" encoding="utf-8"?>
<!-- Generator: Adobe Illustrator 24.0.0, SVG Export Plug-In . SVG Version: 6.00 Build 0)  -->
<svg version="1.1" id="Слой_1" xmlns="http://www.w3.org/2000/svg" xmlns:xlink="http://www.w3.org/1999/xlink" x="0px" y="0px"
	 width="41px" height="41px" viewBox="0 0 41 41" style="enable-background:new 0 0 41 41;" xml:space="preserve">
<style type="text/css">
	.st0{fill:#F15A29;stroke:#F15A29;stroke-miterlimit:10;}
	.st1{fill:#FFFFFF;}
</style>
<circle class="st0" cx="20.9" cy="20.9" r="18.8"/>
<g id="XMLID_1_">
	<path id="XMLID_6_" class="st1" d="M24.3,29h-6.1c-2.7,0-4.9-2.2-4.9-4.9V18c0-2.7,2.2-4.9,4.9-4.9h6.1c2.7,0,4.9,2.2,4.9,4.9v6.1
		C29.1,26.9,27,29,24.3,29z M18.1,14.4c-2,0-3.7,1.6-3.7,3.7v6.1c0,2,1.6,3.7,3.7,3.7h6.1c2,0,3.7-1.6,3.7-3.7V18
		c0-2-1.6-3.7-3.7-3.7H18.1z"/>
	<path id="XMLID_3_" class="st1" d="M21.2,25.1c-2.2,0-4-1.8-4-4c0-2.2,1.8-4,4-4c2.2,0,4,1.8,4,4C25.2,23.3,23.4,25.1,21.2,25.1z
		 M21.2,18.3c-1.5,0-2.8,1.3-2.8,2.8c0,1.5,1.3,2.8,2.8,2.8c1.5,0,2.8-1.3,2.8-2.8C24,19.6,22.7,18.3,21.2,18.3z"/>
	<path id="XMLID_2_" class="st1" d="M26.7,16.7c0,0.6-0.5,1-1,1s-1-0.5-1-1s0.5-1,1-1S26.7,16.1,26.7,16.7z"/>
</g>
</svg>
