<?xml version="1.0" encoding="utf-8"?>
<!-- Generator: Adobe Illustrator 24.0.0, SVG Export Plug-In . SVG Version: 6.00 Build 0)  -->
<svg version="1.1" id="Слой_1" xmlns="http://www.w3.org/2000/svg" xmlns:xlink="http://www.w3.org/1999/xlink" x="0px" y="0px"
	 width="41px" height="41px" viewBox="0 0 41 41" style="enable-background:new 0 0 41 41;" xml:space="preserve">
<style type="text/css">
	.st0{fill:#F15A29;stroke:#F15A29;stroke-miterlimit:10;}
	.st1{fill-rule:evenodd;clip-rule:evenodd;fill:#FFFFFF;}
</style>
<circle class="st0" cx="20.9" cy="20.9" r="18.8"/>
<g>
	<path class="st1" d="M26.6,21.6c0,0,2.3-3.5,2.5-4.6c0.1-0.4-0.1-0.6-0.5-0.6c0,0-1.3,0-2,0c-0.5,0-0.6,0.2-0.8,0.5
		c0,0-1.1,2.5-2.4,4c-0.4,0.5-0.6,0.7-0.9,0.7c-0.2,0-0.3-0.2-0.3-0.6v-4c0-0.6-0.1-0.7-0.5-0.7l-3.2,0c-0.2,0-0.4,0.2-0.4,0.4
		c0,0.5,0.7,0.6,0.7,2.1v2.9c0,0.6,0,0.8-0.3,0.8c-0.7,0-2.3-2.5-3.2-5.4c-0.2-0.6-0.4-0.8-0.9-0.8l-2,0c-0.3,0-0.5,0.2-0.5,0.5
		c0,0.6,0.6,3.2,3.1,6.8c1.6,2.4,3.8,3.7,5.7,3.7c1.2,0,1.5-0.2,1.5-0.8v-1.8c0-0.5,0.2-0.7,0.4-0.7c0.3,0,0.8,0.1,1.9,1.3
		c1.3,1.4,1.4,2,2.2,2l2.2,0c0.2,0,0.4-0.1,0.4-0.5c0-0.5-0.7-1.5-1.7-2.7c-0.4-0.6-1.1-1.2-1.3-1.5C26.3,22.1,26.3,21.9,26.6,21.6
		L26.6,21.6z"/>
</g>
</svg>
